<svg xmlns="http://www.w3.org/2000/svg" fill="none" aria-hidden="true" class="w-[110%] absolute text-aubergine dark:text-aubergine-25 -translate-x-1/2 pointer-events-none h-[110%] inset-1/2 -translate-y-1/2" preserveAspectRatio="none" viewBox="0 0 243 80"><defs><mask id="a"><path stroke="#fff" stroke-width="8" d="M48.5 17.5C87.5-2.5 239-4 239 40.5c0 46.5-225.5 47-234 3-2.125-11 18.86-25.33 34.36-28.83" class="Annotation_maskPath__MlwWS" pathLength="100"/></mask></defs><g fill="currentColor" mask="url(#a)"><path d="M48.991 16.87c-.24 0-.24-.17.48-.33l.72.16-1.2.17Z"/><path d="M49.03 17.37a.59.59 0 0 1-.64-.5c-.06-.57.66-.74 1-.82h.11l3.46.81-3.93.51Z"/><path d="M49.03 17.37a.59.59 0 0 1-.64-.5c-.06-.57.66-.74 1-.82h.11l3.46.81-3.93.51Z"/><path d="M49.06 17.87h-.07a1.08 1.08 0 0 1-1.13-.94c-.12-1 1-1.28 1.38-1.37l.23-.05 6.19 1.44-6.6.92Zm.411-1.33c-.57.13-.63.24-.62.28.01.04.08.05.14.05l1.2-.17-.72-.16Z"/><path d="M53.78 15.03c1-.16 2.16-.16 1.68.17a9.18 9.18 0 0 1-2.16 0c-.71.17-1.19.34-1.19.5-.24 0-1.2.34-1.68.34.96-.37 2.16-.67 3.35-1.01Z"/><path d="M50.43 16.54h-2.95l2.79-1c1-.33 2.18-.67 3.35-1h.08c2-.35 2.26.15 2.32.32a.6.6 0 0 1-.28.75l-.12.09H54.67a4.46 4.46 0 0 1-1.35 0c-.39.1-.6.17-.71.21v.28h-.5c-.09 0-.26.06-.46.11a5.398 5.398 0 0 1-1.22.24Z"/><path d="M50.43 16.54h-2.95l2.79-1c1-.33 2.17-.67 3.33-1h.1c2-.36 2.26.15 2.33.32a.61.61 0 0 1-.29.75l-.12.09H54.67a4.46 4.46 0 0 1-1.35 0c-.39.1-.6.17-.71.21v.28h-.5c-.09 0-.26.06-.46.11a5.398 5.398 0 0 1-1.22.24Z"/><path d="M50.43 17.04h-5.91l5.58-1.95c1-.34 2.18-.67 3.35-1h.16c1.69-.29 2.58-.11 2.88.61a1.12 1.12 0 0 1-.46 1.36l-.26.18h-.31c-.25-.013-.5-.013-.75 0-.455.06-.916.06-1.37 0l-.23.06v.37h-1l-.21.06h-.13a5.522 5.522 0 0 1-1.34.31Zm4.48-2.12c-.38.007-.758.047-1.13.12-1.22.33-2.41.67-3.35 1a5.16 5.16 0 0 0 1.09-.21h.13l.41-.09v-.12l.31-.12c.254-.095.514-.172.78-.23h.2c.404.06.815.06 1.22 0h.84c.13-.09.11-.14.1-.16-.01-.02-.08-.19-.6-.19ZM129.198 2.52h-.48v1h.48v-1Z"/><path d="M129.198 2.52h-.48v1h.48v-1Z"/><path d="M129.698 2.02h-1.48v2h1.48v-2ZM177.077 6.19a1.001 1.001 0 0 1-.48-.17c.48 0 .72.17.48.17Z"/><path d="M177.08 6.67a1.398 1.398 0 0 1-.77-.26L175 5.5h1.6c.68 0 1.07.24 1.07.64v.53h-.59Z"/><path d="M177.08 6.67a1.398 1.398 0 0 1-.77-.26L175 5.5h1.6c.68 0 1.07.24 1.07.64v.53h-.59Z"/><path d="M177.09 7.19a1.91 1.91 0 0 1-1.05-.35l-2.63-1.82h3.2c1.16 0 1.57.59 1.57 1.14v1l-1.09.03Zm-.49-1.17c.137.1.3.159.47.17h.1s-.16-.17-.57-.17ZM185.218 6.69h-.48v1h.48v-1Z"/><path d="M185.218 6.69h-.48v1h.48v-1Z"/><path d="M185.718 6.19h-1.48v2h1.48v-2ZM129.187 3.02l1.2-.17c.24.17-.72.17-1.2.17Z"/><path d="m129.191 3.52-.07-1 1.4-.19.46.32-.08.41c-.14.46-.66.46-1.71.46Z"/><path d="m129.191 3.52-.07-1 1.4-.19.46.32-.08.41c-.14.46-.66.46-1.71.46Z"/><path d="M129.189 4.02h-.46l-.14-1.93 2.05-.28.89.62-.13.72c-.27.87-1.08.87-2.21.87Zm.47-1.07v.07a2.17 2.17 0 0 0 .76-.09v-.05l-.76.07ZM64.07 13.03c-.23 0-.47.17-.71.17l.71-.17Z"/><path d="M63.36 13.67H59l4.58-1a1.63 1.63 0 0 1 .49-.1h4.36l-4.57 1.03c-.162.05-.33.073-.5.07Z"/><path d="M63.36 13.67H59l4.58-1a1.63 1.63 0 0 1 .49-.1h4.36l-4.57 1.03c-.162.047-.33.071-.5.07Z"/><path d="M63.36 14.2h-8.72l8.82-2.05a1.81 1.81 0 0 1 .61-.12h8.72l-8.82 2.05a1.723 1.723 0 0 1-.61.12Zm0-1c.114-.008.226-.035.33-.08l.4-.09a.998.998 0 0 0-.33.08l-.4.09ZM107.888 3.35h-.72v1h.72v-1Z"/><path d="M107.888 3.35h-.72v1h.72v-1Z"/><path d="M108.388 2.85h-1.72v2h1.72v-2ZM91.86 5.67c.24 0 .48.17.71.17h-.71c-.25.02-.25-.17 0-.17Z"/><path d="M92.56 6.36h-.7a.62.62 0 0 1-.68-.59.58.58 0 0 1 .31-.5 1.29 1.29 0 0 1 .89 0l.19.06-.01 1.03Z"/><path d="M92.56 6.36h-.7a.62.62 0 0 1-.68-.59.58.58 0 0 1 .31-.5 1.29 1.29 0 0 1 .89 0l.19.06-.01 1.03Z"/><path d="M93.06 6.86h-1.2a1.11 1.11 0 0 1-1.18-1.09 1.07 1.07 0 0 1 .58-.94 1.71 1.71 0 0 1 1.29 0h.6l-.08.5-.01 1.53ZM67.191 11.2h-.48c0 .16.24 0 .48 0Z"/><path d="M66.78 11.77a.55.55 0 0 1-.35-.12l-.2-.15v-.8h1v1h-.14c-.1.035-.204.059-.31.07Z"/><path d="M66.78 11.77a.55.55 0 0 1-.35-.12l-.2-.15v-.8h1v1a.35.35 0 0 0-.13 0 1.7 1.7 0 0 1-.32.07Z"/><path d="M66.778 12.27a1 1 0 0 1-.66-.22l-.38-.29V10.2h2v2h-.5a1.32 1.32 0 0 1-.46.07ZM37.738 14.2h-.24l-.24-.17.48.17Z"/><path d="M40.69 14.7h-3.35L34 12.37l6.69 2.33ZM39.46 14.7h-2.12l-1.45.49 3.57-.49Z"/><path d="m35.95 15.69-.22-.97 1.61-.52h2.12l.07 1-3.58.49ZM183.781 72.28c1.44-.5-2.63.16-.48-.5-.24.16 2.16 0 .48.5Z"/><path d="m183.918 72.76-.06-.19h-.45c-.7 0-1.16 0-1.25-.45-.09-.45.42-.65 1-.83l3.05-.95-1.65 1.16a.516.516 0 0 1 .33.43c.04.52-.52.74-.97.83Z"/><path d="m183.918 72.76-.06-.19h-.45c-.7 0-1.16 0-1.25-.45-.09-.45.42-.65 1-.83l3.05-.94-1.64 1.15a.515.515 0 0 1 .32.43c.04.52-.52.74-.97.83Z"/><path d="m183.601 73.38-.1-.3h-.08c-.71 0-1.59.07-1.75-.86-.16-.93.74-1.21 1.33-1.4l6.1-1.89-3.8 2.67c.039.092.063.19.07.29.1.92-.85 1.21-1.3 1.35l-.47.14Zm.26-1.31h.37a.47.47 0 0 0 .14-.1l-.76-.34-.32.1c-.23.049-.45.136-.65.26.24.052.489.052.73 0h.49v.08ZM64.55 12.87l.72-.17a1.55 1.55 0 0 1-.72.17Z"/><path d="M64.547 13.37h-4.36l5-1.16.28 1a2.12 2.12 0 0 1-.92.16Z"/><path d="M64.55 13.37H60.2l5-1.16.28 1a2.118 2.118 0 0 1-.93.16Z"/><path d="M64.55 13.87h-8.69l9.65-2.2.54 1.87-.45.15a2.53 2.53 0 0 1-1.05.18Zm0-1c.09.011.18.011.27 0h-.27ZM229.509 23.21s-.24 0-.24-.17c0 .17 0 .17.24.17Z"/><path d="M229.509 23.67c-.21 0-.74 0-.74-.67h.74v.67Z"/><path d="M229.509 23.67c-.21 0-.74 0-.74-.67h.74v.67Z"/><path d="M230.011 24.21h-.5a1.108 1.108 0 0 1-1.24-1.16v-.5h1.11l.05-.34c.092.01.182.03.27.06l-.09.28h.4v1.66ZM207.718 13.37l.72.16c-.48 0-.48-.16-.72-.16Z"/><path d="M212.858 14.03h-4.37a1.371 1.371 0 0 1-.7-.15l-4.39-1h4.37a.941.941 0 0 1 .34.06l4.75 1.09Z"/><path d="M212.858 14.03h-4.389a1.4 1.4 0 0 1-.7-.15l-4.41-1h4.39a.941.941 0 0 1 .34.06l4.769 1.09Z"/><path d="M217.229 14.53h-8.79a1.93 1.93 0 0 1-.86-.17l-8.65-2h8.79c.182-.003.362.03.53.1l8.98 2.07Zm-9.51-1.16.24.06c.15.072.314.107.48.1l-.49-.11a.594.594 0 0 0-.23-.05ZM237.648 31.06c.24.16.24.33.48.66l-.48-.66Z"/><path d="m237.719 32.02-2.18-3 2.39 1.65c.191.13.343.31.44.52 0 .07.09.16.16.26l-.81.57Z"/><path d="m237.72 32.02-2.17-3 2.38 1.65c.192.13.344.31.44.52 0 .07.09.16.16.26l-.81.57Z"/><path d="m237.599 32.67-4.15-5.78 4.77 3.31c.252.176.455.413.59.69.037.073.08.144.13.21l.29.41-1.63 1.16Zm.05-1.65.18.26a.798.798 0 0 0-.22-.23l.04-.03ZM241.5 40.24h-1v.5h1v-.5Z"/><path d="M241.5 40.24h-1v.5h1v-.5Z"/><path d="M242 39.74h-2v1.5h2v-1.5ZM5.66 45.07c-.24-.16-.24-.33-.48-.33.24.17-.24-1.17.48.33Z"/><path d="m6.928 46.57-1.56-1.09-.17-.14-.3-.19-1.32-.91h1.2a.44.44 0 0 1 .34-.37c.45-.13.63.22 1 1l.81 1.7Z"/><path d="m6.93 46.57-1.56-1.09-.17-.14-.3-.19-1.31-.91h1.19a.44.44 0 0 1 .34-.37c.46-.13.63.22 1 1l.81 1.7Z"/><path d="m8.2 48.07-3.11-2.18a1.724 1.724 0 0 1-.2-.15l-.26-.16L2 43.74h2.46a1 1 0 0 1 .53-.35c.86-.24 1.21.49 1.57 1.25l1.64 3.43Zm-3.05-3.35.4.26.11.09a3.396 3.396 0 0 0-.41-.74l-.1.39ZM64.078 12.87h.48c-.24 0-.24.16-.48 0Z"/><path d="M64.248 13.44a.82.82 0 0 1-.46-.16l.2-.29h-.41v-1.08l.65.46h.33v1a.937.937 0 0 1-.31.07Z"/><path d="M64.248 13.44a.82.82 0 0 1-.46-.16l.2-.29h-.41v-1.08l.65.45h.33v1a.749.749 0 0 1-.31.08Z"/><path d="M64.248 13.94a1.34 1.34 0 0 1-.74-.25l-.28-.2h-.15v-2.54l1.31.91h.67v1.81l-.3.13a1.19 1.19 0 0 1-.51.14ZM235.488 32.22c.24.5.72.84 1 1.34a9.127 9.127 0 0 1-1-1.34Z"/><path d="m236.039 33.85-.25-.32a5.814 5.814 0 0 1-.75-1.09l.9-.43c.113.202.251.39.41.56.219.229.404.488.55.77l-.86.51Z"/><path d="M236.039 33.85c-.06-.09-.15-.2-.25-.32a5.487 5.487 0 0 1-.75-1.09l.9-.43c.113.202.251.39.41.56.219.229.404.488.55.77l-.86.51Z"/><path d="m235.911 34.51-.27-.36-.21-.27a6.462 6.462 0 0 1-.84-1.23l-.22-.45 1.81-.86.21.45c.094.16.204.312.33.45.254.262.467.563.63.89l.2.41-1.64.97Zm-.16-1.84c.13.19.28.37.41.54a3.096 3.096 0 0 0-.23-.28l-.17-.26h-.01ZM90.168 73.95h-.48v1h.48v-1Z"/><path d="M90.168 73.95h-.48v1h.48v-1Z"/><path d="M90.668 73.45h-1.48v2h1.48v-2ZM238.121 37.73c.24.17.24.5.48.84v.16a1.883 1.883 0 0 1-.48-1Z"/><path d="m239.101 40.29-.9-1.27a2.277 2.277 0 0 1-.58-1.29v-1l.79.55c.211.16.365.384.44.64.037.11.091.215.16.31l.09.14v1.92Z"/><path d="m239.101 40.29-.91-1.27a2.342 2.342 0 0 1-.57-1.29v-1l.79.55c.211.16.365.384.44.64.039.113.093.22.16.32l.09.13v1.92Z"/><path d="m239.601 41.85-1.81-2.54a2.69 2.69 0 0 1-.67-1.58v-1.92l1.58 1.1c.285.219.497.518.61.86.028.077.065.15.11.22l.18.26v3.6Zm-1.48-4.12c.062.371.229.718.48 1v-.16a1.684 1.684 0 0 1-.21-.43.837.837 0 0 0-.27-.41Z"/><path d="M5.858 35.4c-.48 1.33-.72.5-1 .83-.72 1.67 0 .83.24 1.33a23.16 23.16 0 0 0-1 2.51s0 .17.24 0a14.9 14.9 0 0 0 .48 4.5c0 .17.24.17.24.17a.57.57 0 0 0-.72 0c.24.67.24 1.17.72 1.34a1 1 0 0 1-.24-.67c0 .17.24.5.24.67.72.5-.48-.84 0-1l.72 2a4.85 4.85 0 0 0 1.2 1.67c.48 0-1.44-2.17-.24-1a4.801 4.801 0 0 1-1-1.34c1.2.83-.48-.83.72 0 .48.83 1 1.34 1.2 1.84.4.666.88 1.28 1.43 1.83.24.5-.48 0-.24.5 2.16 2.51 2.88 1.34 4.31 3.17.48.5.24 1 1.92 1.84l-.24-.67c2.15 1.34.72 1.17 3.35 2.34-.24-.34-1.68-1.17-1.2-1 1.68.66 1 .66 2.16 1.33l.48-.17a70.078 70.078 0 0 0 7.9 4c0-.17-.48-.33.24-.17a74.79 74.79 0 0 0 12 4l1.43.67c.24.16.72 0 .24 0 1.44.33 0 .16.72.5.96.16 1.2.16.72 0a51.481 51.481 0 0 0 10.53 2.83l-.48-.16c2.4.33 2.4 1 4.55 1.16l-.48-.16c5 .83 10.3 2 14.37 2.17.72.5 5 .5 5.26 1 2.88.17 2.16 0 6.23.17 1.2.16 1.44.5 2.87.66v-.33l1.68.5 1-.17 1.19.17c-.48 0-1.19 0-1 .17 1.659.199 3.332.252 5 .16l4.55.5c0-.16-1-.16-1.44-.33 2.4.5.48-.17 2.64.17-.24 0 .24.16.24.16 1.915-.1 3.834-.042 5.74.17l-.24-.17c3.59.17 7.43.34 11.26.34-1.44 0-1.2.33 0 .5l.47-.33c.72.16-1.19.16.24.33 1.44 0 1-.33.24-.33l1.68.16a1.001 1.001 0 0 0-.48-.16c.72.16 3.11-.17 4.07 0h8.86c.786.176 1.585.286 2.39.33 2.4-.17 5-.5 7.66-.5 1.92 0 .72.17 1.44.33.24-.16 2.87-.33 1.44-.5 3.35-.17 4.31-.17 8.62-.5-.48.17-1 .17-.72.33.72 0 1.67-.16 1.67-.33h-.07c4.79 0 10.78-1.67 14.61-1.84h-.24l4.07-.33c1.67-.33-1.2 0 .24-.33 4.31-.34 6.46-1.17 10.05-1.5 2.4-1.17 9.34-1.84 12.45-3.18l-.24.17c1 0 1-.33 1.68-.5 0 .17-1 .33-.24.33a115.23 115.23 0 0 0 22-7.84c2.4-1.17 2.16 0 4.79-1.83l-1.2.16a42.02 42.02 0 0 0 12.69-8.84c-.24.16-.48.16-.72.5a10.986 10.986 0 0 1 2.4-2.67c.24-.5 0-.17 0-.5.24-.84 1.44-1.84 1.2-2.34 0 0-.24.17-.24.33.48-.5.71-2.5.95-1.83a7.563 7.563 0 0 0 0-4c.24-.83-.71-2.5-.47-2.83-.48.16-1.44-2.34-1.92-3.34 0 .33-.72-.67-.72-.34-.72-1-1.43-1.83-1-1.83a11.326 11.326 0 0 1-2.39-2.34 9.733 9.733 0 0 0-2.15-1.67 46.436 46.436 0 0 0-9.58-6.34c-.24.34 3.83 2 3.35 2.34a69.972 69.972 0 0 0-8.14-4.51c-1-.33.48.34.72.5-3.35-1.67-6.94-2.67-10.06-4 .227.136.468.247.72.33-.72-.17-1.43-.5-1.43-.67l.47.34c1.2.16-2.15-1.34-2.39-1.5.72.83-3.35-.84-1.91.16-.48-.16-1-.33-.72-.5-.72-.17-1-.17-.24.17-2.4-.67-1.44-.67-3.59-1.34 0 0 .48.17.48.34a23.11 23.11 0 0 0-3.83-1.34s-.24 0 .47.17c-3.11-.84-5.26-1.67-8.85-2.34.95.5-1.2-.16-1.68.17-.72-.17-1.2-.33-1.92-.5h.72c-1.67-.33-3.11-.84-4.55-1l1.2.33c-1-.17-2.15-.33-3.11-.5l1.91.17c-1.67-.5.24-.34-1.91-.67a23.523 23.523 0 0 0-2.63-.17 11.775 11.775 0 0 0-2.88-.5c-.24 0 .24.34 0 .34-.72-.34-4.07-.5-5-1a.483.483 0 0 1 .23.34l-.71-.34c-.72 0-1 0-1 .17-2.4-.17 1-.33-2.16-.5.24 0 0 0 .48.17-2.87-.17-5.5-.67-8.14-.67-.71.33 2.4.17 1.44.5-3.83-.33-7.9-.83-11.73-1h.72c-.48-.5-2.88.17-4.79-.17.48 0 .48.34.48.17-2.64 0-5.27-.17-9.1-.33l.48.16c-1.44.17-4.07.17-5.51.17-.48-.17-1.43 0-.95-.17-5 .84-9.58 0-13.89 1h1c-1.2 0-2.64.17-3.83.17a3.51 3.51 0 0 1 1.19-.33h-2.39c1.68 0 0 .33-.72.5 0 0-.24-.17 0-.17-1.91.5-.48-.33-3.11.17l.24.16a20.526 20.526 0 0 0-3.11.17c-.48.34 1.19 0 1.19.17-1.43.17-3.11-.17-4.31.33.72 0 1.68-.16 2.16-.16-1.44.5-1.68.33-2.63.66l-2.4.5.72-.16c-2.16-.34-3.83.5-6.46.5 2.63 0 .47.16.71.33-.71.17-1.67.5-1.19.5-1.2 0-1.92.5-3.59.5 0 .17-1.2.34-1 .34-1.44.16.24-.17.24-.34-2.4.17-5.27 1.5-8.86 1.84-2.87.5-3.59.33-6.23 1-.71.33 1 .17 1 .17-1.256.41-2.535.743-3.83 1 .24 0 0 .16-.24.33-1.19.34-1-.17-2.15.34h1.19c-1.43.16-2.63.5-4.07.66-.23.17 1 0 1.44 0a34.541 34.541 0 0 1-4.55.84l1-.34c-.48.17-.24.34.24.17 1.44-.17 1.91-.5 1.91-.67l-1 .17c.72-.67 3.83-1 5.74-1.5l-1-.17 2.15-.17c.48-.16.48-.5-.48-.33 1.2-.5 1.2-.17 2.4-.67l1.56-.19c-.24 0 0-.34-.72 0 2.4-.84 4.07-.67 4.79-1.17h-.24c3.35-.67.48.16 3.11-.17l1.44-1 .48.17c.317-.156.653-.27 1-.34 1.43-.16-.24.17.72.17 1.67-.5 4.78-.83 5-1.34.72 0-1.67.51.24.17.24-.5 2.16-.33 3.59-.83-.48-.17-1.91.33-.48-.17 1 .17 3.12-.5 4.31-.67.24.34 2.88-.33 5.27-.5-.24-.17 4.31-.67 6.23-1 .47.33 2.63 0 4.3 0 0-.17-.47-.17-1.19-.17l1.43-.16h1.92l-.48-.17c1.92-.17 4.07 0 6.7-.33.24.16-1.91.66.72.66 0-.16.24-.33-.48-.33h-1.67c1.19-.17.72.17 1.67 0 0-.17.72-.17.48-.33a2.92 2.92 0 0 1-1.19 0 8.757 8.757 0 0 0 2.63-.34c0 .17 0 .17.72.17.645-.05 1.285-.16 1.91-.33.48.16 1.68 0 1.92.16a7.77 7.77 0 0 0 1-.16c.95 0 4.78-.17 3.59.16 1.67.17 3.35 0 5.26 0 1.68 0 3.59-.16 5.27 0 1.92.17 4.55.17 6 .34.403.005.804-.052 1.19-.17 1.27.159 2.55.216 3.83.17-1.43-.17.48-.17-1.67-.17 1.524-.131 3.06-.02 4.55.33-.72-.33 1.43-.16 2.39 0h-1.54c.953.141 1.916.198 2.88.17l-.48-.33c4.07 0 7.18 1.16 10.29 1 1 .33-2.15-.17-1.43.16 1.91.17 3.83 0 4.54.17 2.64.17 2.16.67 5 1-.48 0-.72.34 1.2.67 1.91.17 2.39 0 1.2-.33h-.72c-.48-.17-1.44-.34-.48-.34l.24.17c1 0 3.35.5 2.87.17 1.44.33.48.33-.48.16 2.4.34 3.59.67 6.23 1-.48 0-.72 0-.48.17 3.59.67 1.43.5 3.83 1 1.43.17-.24-.5 1.91.17 1.44.17.48-.17 0-.33 2.16.66 4.07.83 5.27 1.16l-1.2-.33c.569.133 1.13.3 1.68.5h-.72c.72.17 1.2.33 1.2.17.72.33-.72.16.48.67 1 .16 2.63.83 3.11.66-2.87-.66.48-.16-1.92-.83.549.2 1.11.367 1.68.5l-.24-.17c2.87.5 1 .67 3.83 1.34-.24-.17.72 0 1.2.16-1.2-.33-.72 0 .24.5.893.287 1.771.62 2.63 1l-1-.34c.24.17 1.2.5 2.16 1 .24 0-1-.5-.48-.33 1.2.67 3.11.83 4.79 1.67.95.17.24-.17.95 0 1.92 1 2.4.67 4.31 1.67-.71-.17-.71-.17.48.67-.95-.51-2.15-1-3.11-1.51a12.4 12.4 0 0 1 1.92 1.17c-.858-.44-1.739-.83-2.64-1.17 1 .5 1 .5.24.5 1.68.34 2.64 1.34 4.31 1.84l.24-.5c2.63 1 3.83 2.17 6.94 3.84l-.95-.5c.24.33 1.67 1 2.39 1.67 0-.17.72.16 1.2.33-.24 0 1.91 1.33 1.91 1.67.48.17 1 .5 1.44.67 2.15 1.5 1.67 2.17 3.35 3.67-.24-.67.72.16-.24-1.17.48.5 1 1 1 1.17a22.47 22.47 0 0 1 1.67 2.17c0 .33 0 .5.48 1.17 0 0 .48 1.16 0 .66a6.223 6.223 0 0 1 1.92 3.67c.309 1.212.549 2.44.72 3.68a9.416 9.416 0 0 1-.48 2.33c0 .34-.24.84-.24 1.17-.24.33-.24.67-.48 1l.24-.17c-.48 1.84-1.2 1-1.92 2.84-.24.5 0 .34.24 0l.24-.33c.48.5-1.67 2.17-2.39 3.5l.24-.33a5.289 5.289 0 0 1-1.68 1.5c-.72.5-1.43 1.17-2.39 1.84-1.44.66-3.83 2.17-5.75 3.17.72-.17 1-.34.72 0-1 .5 0-.34-1.68.5-.47.33-1.67 1.17-1.43 1.33l1.67-.83c-.47.67-2.15 1.17-2.87 1.5h.24c-2.63 1.17-2.87 1-5.75 2.17l.24-.17c-1.67.34-1.19.67-2.87 1.17l-.24.5c-1.2.34-3.83 1.17-5.74 1.67 1.19-.17 3.59-.83 5-1.17a26.47 26.47 0 0 1-4.28 1.38 5.159 5.159 0 0 0 1.44-.5 26.669 26.669 0 0 0-5.27 1.33c.72.5-5.5 1.84-6.94 2.67-4.07.84-7.66 2-12.45 3 1.44-.84-1.43.33-1.2-.34-1.19.17-1.43.34-1.67.34l-3.11.83c-.72.33 1.19 0 .95 0-2.39.5-.95.33-2.39.84.24-.17-1-.17-2.39.16l1.91-.5c-3.35.34-2.87.84-6.22 1.17h1.19c-2.777.397-5.576.62-8.38.67-.23.16-.71.33 0 .16-4.3.67-9.57.51-12.68 1.17l.24.17a11.26 11.26 0 0 0-2.4 0s.24.17 0 .17h-2.15c-4.07.5-6.47 0-9.82.16 0 .34-3.11.67-4.79.67-4.78.17-8.14-.17-12.69-.33-2.87.33-9.33 0-13.88.16.72 0 0-.33-1-.33s-2.87-.33-2.63 0h.48c-.72.33-2.88 0-4.55 0l-.24-.5c-4.55.33-11.49-1-13.89-.83-1-.17-2.39-.34-3.35-.51v.17c-2.87-.33-4.31-.33-7.9-1l.72.33c-1.92-.33-2.39-1-4.31-1.33l-.72.33a71.444 71.444 0 0 1-10.53-1.83s0 .16.72.33c-1.68-.33-6.47-1-5.51-1.33-.24.33-3.59-.67-5.27-1.34l.24.33a19.688 19.688 0 0 0-3.56-1.32c-.48-.17-.48 0 .24.17-1.68-.34-1.2-.5-3.35-1l.72.34a7.893 7.893 0 0 1-2.4-1 26.126 26.126 0 0 0-3.59-.84 5 5 0 0 0-1.91-.83c-.24 0 .24.17.24.33-2.88-.83-4.07-1.67-6-2.17h-.45c1.242.539 2.523.987 3.83 1.34-.24.16-1.91-.34-.72.33-1.43-.67-3.59-1.83-5.26-2.5h-.24l.24.16a3.22 3.22 0 0 1-1-.5l-1.35-.51c-.24 0-1.91-.83-2.87-1.16.24-.17-1-.67.24-.34-.24 0 .24.17.72.34l.24.16c.668.43 1.391.766 2.15 1a8.629 8.629 0 0 0-2.15-1.16c-.24-.34-.72-.67-.72-.84-1.44-.17-3.59-1.33-4.07-1.33-2.39-1.51-5.51-3.34-6.23-4.68a1.27 1.27 0 0 0-1.19-.5c.24.34.72.67.72.84-1.2-1-3.12-2.84-3.12-3.34-1.43-1.17.24.83-1.19-1v.33a9.44 9.44 0 0 1-3.12-5.17 34.898 34.898 0 0 1-1-5.84v.5c-.24-2.67 1-5.34 2.87-7.68a37.825 37.825 0 0 1 6.46-6.51 7.258 7.258 0 0 1 2.88-1.5v-.33l1.91-.88c2.64-1.17 3.59-2.84 7.42-4l-.24.33c1.2-.5 3.83-1.5 3.6-1.67a1.42 1.42 0 0 0 1-.33v-.13c1-.33 2.16-.67 3.11-1 2.4-1-.71-.33 2.88-1.5a24.66 24.66 0 0 1 3.54-.7c-.48.17-1.2.5-1.2.67l1.2-.34c.48.34 1.67.34-1.2 1.51l-2.15.5-.49.36c.48-.17 1.2-.33 1.67-.5a6.47 6.47 0 0 1-2.39.67c0 .16-.24.33-.72.5-.72.16-1.43.16-2.15.33-.24.17 1 0-.24.5-1 .17.72-.67-1-.16a3.21 3.21 0 0 1-1.68.83c0 .173.24.173.72 0-1.009.415-2.049.75-3.11 1-.72.5-3.11 1.34-2.87 1.67a6.94 6.94 0 0 0-2.64 1c1.92-.5-2.87 1.67-2.15 1.84-1.44.33-3.83 2.17-5.51 3.33.24 0 .48-.16.48-.33a5.909 5.909 0 0 0-1.41 1.5c-.48-.16-1.92 1-2.64 1.5-.48 1.17 1-.33 1.2.17-.24-.17-1.92 1.5-1.68 1.17-.24.83-.48.67-.24 1.17-.71 0-.48.67-1.19 1.33-.48 1.17.24.5-.48 1.67-1.65 1-.97-.16-.97-.16Zm21.83 26.36a2.3 2.3 0 0 0-1-.33 4.5 4.5 0 0 1 1 .33Zm3.59 1.34a12.983 12.983 0 0 0-1.68-.5c-.24 0 0 .16.24.33.02-.17.72.17 1.44.17Zm-8.86-1.67c.28.233.637.351 1 .33-.24-.16-.72-.16-1-.33 0-.17 0-.17-.24-.17.24 0 .24.17.24.17Z"/><path d="M131.139 78c-2.29 0-4.33-.11-6.46-.22-1.16-.06-2.35-.12-3.64-.16-2.447.167-4.9.21-7.35.13H107.169v-.94a.452.452 0 0 0-.18.31.433.433 0 0 0 .18.44 2.584 2.584 0 0 0-.94-.14c-.34 0-.8 0-1.24-.08h-.54l-.16.07a7.42 7.42 0 0 1-3 .13c-.6 0-1.22-.08-1.79-.08h-.32l-.23-.48a60.458 60.458 0 0 1-8.75-.51 37.61 37.61 0 0 0-4.79-.35h-.12l-1.66-.25-1.1-.2v.14l-.56-.06c-.85-.1-1.58-.17-2.27-.24-.69-.07-1.4-.13-2.14-.22l.94.44-3.74-.65a9.998 9.998 0 0 1-2.26-.7 8.403 8.403 0 0 0-1.89-.61l-.71.33h-.15l-2.08-.28a61.733 61.733 0 0 1-7.74-1.35v.12c-.39-.08-1-.17-1.57-.28-3-.51-4-.73-4.29-1a14.587 14.587 0 0 1-3.47-.83l.41.56-1.73-.8a17.81 17.81 0 0 0-3.22-1.22v.09a7.066 7.066 0 0 1-1.6-.44 8.266 8.266 0 0 0-1.06-.36l-.06.14a7.397 7.397 0 0 1-2-.77l-.5-.27a31.159 31.159 0 0 0-3.37-.78h-.14l-.13-.08a6.001 6.001 0 0 0-.89-.5v.26l-.64-.19c-.92-.27-1.67-.53-2.33-.79h-.19a2.678 2.678 0 0 1-.68 0h-.08l-.15.29c-.5-.23-1.1-.53-1.73-.84-.63-.31-1.17-.59-1.77-.87l-1.72-.6a3.899 3.899 0 0 1-1-.53l-1.29-.45h-1.35a1.91 1.91 0 0 1-1.25-.42l-.21-.24v-.26a.44.44 0 0 0 .26.31v-.52l-.4-.15-.92-.3.39-.28a.49.49 0 0 1-.07-.49c-.6-.19-1.22-.44-1.76-.66a7.18 7.18 0 0 0-1.07-.39h-.12l-.14-.06-.75-.47a26.578 26.578 0 0 1-5.19-3.73v.53l-.83-.69c-.49-.42-2.78-2.37-3.22-3.42a.46.46 0 0 1-.26 0v.13l-.83-.72a9.91 9.91 0 0 1-3.27-5.43 31.848 31.848 0 0 1-.88-5.46h-.05c-.23-2.59.8-5.37 3-8a38.673 38.673 0 0 1 6.53-6.57 5.761 5.761 0 0 1 2.17-1.37l.47-.17v-.32l2.21-1c.905-.418 1.763-.931 2.56-1.53a15.603 15.603 0 0 1 4.92-2.49l1.41-.43-.08.12 1.28-.55-.71-.5h1.6a.78.78 0 0 0 .45-.11v-.24l.34-.12c.48-.17 1-.34 1.57-.51.57-.17 1.07-.33 1.54-.49.222-.09.44-.194.65-.31v-.17c.13-.28.33-.42 2.18-1 4.12-.95 4.15-.83 4.29-.36l.07.25a.81.81 0 0 1 .55.7c0 .5-.5.84-2.17 1.52l-1 .22v.09c-.64.342-1.339.559-2.06.64l-.29.1a2.25 2.25 0 0 1-.83.46c-.313.074-.63.127-.95.16l-.71.25a1.997 1.997 0 0 1-.71.41h-.11a.76.76 0 0 1-.8-.2l-.29.22c-.232.197-.5.346-.79.44l.07.19-.76.28c-.761.312-1.547.56-2.35.74-.32.19-.78.41-1.27.64-.34.15-.85.39-1.14.56l.34.48h-1c-.58.097-1.143.279-1.67.54 0 .31-.45.55-1.37 1.08-.21.12-.5.28-.75.44l1.2.28-2.09.48c-1.11.26-3 1.59-4.47 2.66l-.24.17a.999.999 0 0 1-.63.49 3.006 3.006 0 0 0-.46.53c-.12.186-.257.36-.41.52l-.23.23-.3-.11c-.4.178-.777.406-1.12.68a.61.61 0 0 1 .3.31l.82 1.71-1.21-.88c-.26.18-.72.58-.91.74l-.26.22a2.77 2.77 0 0 1-.23.52v.08l.35.72h-.8c-.1 0-.15.15-.19.23a2.94 2.94 0 0 1-.58.89c-.12.31-.1.38-.09.4.09.35 0 .61-.39 1.24l-.06.11-.11.06a2.51 2.51 0 0 1-1.23.49.7.7 0 0 1-.56.21c-.04.084-.073.17-.1.26a.77.77 0 0 1 .43.41l.11.21-.11.22c-.19.396-.357.804-.5 1.22h.06l-.24 1.22a11.6 11.6 0 0 0 .35 3.6l.1.52h.07l1.3.91h-1l.18.48c.32-.17.67.08.95.28l.15.16c.203.344.423.678.66 1 .213.271.401.563.56.87.275.48.611.924 1 1.32l.42.52a.68.68 0 0 1 0 .69 4.76 4.76 0 0 0 2 1.41 4 4 0 0 1 2 1.45c.138.152.253.324.34.51 0 .09.09.17.15.26l-.17-.48 1.22.76c.578.304 1.1.707 1.54 1.19h.09l.51.16a3.82 3.82 0 0 1 1.49.84 2 2 0 0 0 .52.39l.47-.16.68.38a71.017 71.017 0 0 0 6.82 3.48c.232-.068.478-.068.71 0h.1a73.242 73.242 0 0 0 11.88 4l1.42.66h.13c.158-.007.316.024.46.09.39.1.62.21.69.47l.42.06v-.1l.14.06a54.246 54.246 0 0 0 9.8 2.7v-.11c.84.104 1.662.326 2.44.66a5.998 5.998 0 0 0 1.62.46v-.12c1.35.23 2.73.48 4.09.73 3.369.7 6.78 1.18 10.21 1.44h.14l.12.09c.81.219 1.642.353 2.48.4a7.65 7.65 0 0 1 2.72.52c2.64.15 2 0 6 .16.474.06.94.17 1.39.33.327.106.661.19 1 .25v-.42l2.21.66.92-.16 1.27.18v.28c1.262.076 2.528.076 3.79 0h.23l3.17.35.05-.17c.355.088.716.148 1.08.18.25-.15.55-.17 1.52 0v.36l.12-.17h.08a27.068 27.068 0 0 1 3.89 0l-.16-.11 1.74.09c3.77.17 7.48.33 11.23.33v.17h2.15c.093-.01.186-.01.28 0a15.14 15.14 0 0 0 1.6 0c.758-.071 1.521-.071 2.28 0h9.27v.13h.62c.42 0 .89.08 1.3.15l2.17-.18c1.77-.16 3.61-.32 5.46-.32 1.09 0 1.33 0 1.53.25l.74-.12a4.9 4.9 0 0 0 .55-.09v-.23l2.1-.1c1.88-.08 3.25-.15 6.51-.4l3.83-.3-.44.16c1.92-.19 3.94-.54 5.92-.88a57.57 57.57 0 0 1 5.77-.8l3.49-.29c.13-.23.46-.3.74-.37a46.155 46.155 0 0 0 5.69-.83c1.4-.26 2.71-.52 4.35-.67a31.555 31.555 0 0 1 5.93-1.52 37.113 37.113 0 0 0 6.57-1.53l4.53-1.94-2.39 1.71a115.853 115.853 0 0 0 21.07-7.6l.58-.26-.37.05 3.4-1.47a41.01 41.01 0 0 0 11.84-8.06l-.11-.07a13.14 13.14 0 0 1 2.35-2.7 1.347 1.347 0 0 1 0-.22v-.14c.172-.469.422-.905.74-1.29l.2-.28v-.3a.893.893 0 0 1 .28-.6c.1-.23.2-.56.27-.78.062-.372.228-.719.48-1a6.23 6.23 0 0 0 0-3.28l-.06-.16v-.16a3.578 3.578 0 0 0-.28-1.48 5.192 5.192 0 0 1-.24-.9 8.319 8.319 0 0 1-1.5-2.69c0-.08-.07-.17-.11-.25v.5l-1.27-1.77c-.54-.72-.86-1.15-.84-1.53l-.31-.25a8.168 8.168 0 0 1-1.82-1.86 8.585 8.585 0 0 0-2-1.53l-.12-.08a43.6 43.6 0 0 0-5.51-4.08l-.37.27-.27-.16-2-1.17a53.402 53.402 0 0 0-5.31-2.94l-.08.13a59.868 59.868 0 0 0-6.06-2.47c-1.1-.4-2.15-.78-3.16-1.19-.64-.15-1.69-.48-1.81-1l-1-.5-.2-.1a1 1 0 0 1-.46.05l1.58 1.1-3.44-1.2a2.74 2.74 0 0 1-.89-.41v.09a9.888 9.888 0 0 1-2-.73 4.447 4.447 0 0 0-.43-.21v.28l-.74-.38a18.546 18.546 0 0 0-3.22-1.15 4.589 4.589 0 0 1-.48-.13c-.83-.23-1.6-.46-2.36-.69-1.69-.5-3.3-1-5.39-1.4a1.5 1.5 0 0 1-.86 0 4.063 4.063 0 0 0-1.07-.06l-.18.13-.19-.06-1-.26-.94-.24-3.48-.73-.69-.1-1.57-.26.06-.47c-.12.008-.241.008-.36 0a8.672 8.672 0 0 0-2.16-.15h-.2l-.49-.12a9.385 9.385 0 0 0-1.75-.34l-.14.27h-.48l-.1-.05a11.613 11.613 0 0 0-1.93-.35c-.75-.1-1.52-.21-2.15-.35v.36l-1.32-.61h-.35v.2h-.54c-.65 0-1.08-.07-1.27-.31h-.4c-1.21-.07-2.38-.2-3.52-.33l-1.5-.26.45.21-1.23-.21h-.28a.759.759 0 0 1-.49.38h-.2l-3.7-.35c-2.66-.27-5.41-.54-8-.65v-.2c-.34 0-.8 0-1.17.06a18.85 18.85 0 0 1-2 .06l-.57.21-.1-.13c-1.88 0-3.76-.1-6.12-.21l-1.28-.06-.86.1c-1.47.17-4.14.17-5.57.17h-.16a3.003 3.003 0 0 0-.67-.05 1.3 1.3 0 0 1-.38 0 41.459 41.459 0 0 1-6.19.38v.11h-.5a8.445 8.445 0 0 1-1.11-.05 30.361 30.361 0 0 0-4.82.36v.19c-.64 0-1.29.05-1.94.09-.65.04-1.34.08-1.94.08h-1.13l-.43.1-.46.11-.18-.13a1.67 1.67 0 0 1-1.16 0 1.003 1.003 0 0 0-.32-.06l.48.34h-3v.15l-.44.06a16.86 16.86 0 0 1-1.74.05l-.27.1a8.999 8.999 0 0 1-1.68.43 5.74 5.74 0 0 0-.95.24l-2.46.51v-.22a12.21 12.21 0 0 0-2.65.24c-.45.08-.92.16-1.44.22l.23.16-1.09.26c-.387.082-.765.199-1.13.35l-.18-.31v.47a5.75 5.75 0 0 0-1.37.21 9.1 9.1 0 0 1-2 .29 3.31 3.31 0 0 1-.87.27h-.15v-.15.17c-.5.06-.87.1-1-.15-.71.14-1.48.35-2.31.58-1.833.53-3.711.892-5.61 1.08-1.14.2-2 .29-2.69.38h-.39l-2.06.72c-.982.334-1.984.608-3 .82l-.51.12c-.12.125-.254.236-.4.33l-.15.07h-.08.72l-4.26 1c-.11 0-2.13.49-3.55.72h-.12c-.33.062-.664.099-1 .11h-3l3.75-1.31.07.21h.6l.35-.33c.51-.47 1.64-.74 3.43-1.09l-2.32-.4 4.48-.35 1-.42a4.392 4.392 0 0 1 1.32-.37c.37-.042.732-.143 1.07-.3h.14l.59-.07v-.06c.181-.088.373-.151.57-.19a18.077 18.077 0 0 1 2.7-.57 4.79 4.79 0 0 0 1.41-.34v-.1c1.42-.29 2-.4 2.29-.1a6.21 6.21 0 0 0 .74-.06l1.54-1.08.52.18c.285-.116.58-.206.88-.27.52-.07.87-.11 1.07.07.59-.16 1.29-.29 2-.43s1.5-.29 2-.45a1.32 1.32 0 0 1 .36-.15l.13-.28.26.07a1.56 1.56 0 0 1 .25 0 5.61 5.61 0 0 1 1.47-.3l.54-.06c.11-.19.4-.29.93-.47h.25a9.91 9.91 0 0 0 2.66-.38c.56-.12 1.08-.23 1.49-.29h.3l.1.13c.64-.04 1.278-.117 1.91-.23.86-.13 1.84-.28 2.8-.35a20.376 20.376 0 0 1 3.51-.6c1.06-.14 2.15-.29 2.86-.41h.2l.17.12a9.43 9.43 0 0 0 2.15 0h.63v-.2l.71-.09-.15-.05 2.33-.2c.79-.07 1.62-.08 2.5-.09h1.41l-.6-.21h3.58a8.337 8.337 0 0 0 1.76-.25l.79-.54v.64h.21c.77-.07 1-.11 1-.12.255-.128.534-.2.82-.21h.24c.289.055.585.075.88.06.335-.028.673 0 1 .08.135-.013.269-.04.4-.08a5.874 5.874 0 0 1 1.35-.1c2.41-.05 3.1-.06 3.32.23.91.05 1.8 0 2.73 0 1.12 0 2.32 0 3.61-.07a29.068 29.068 0 0 1 3.62 0c.9.08 2 .12 3 .16 1 .04 2.23.09 3 .18.336-.018.67-.062 1-.13l.11.38v-.42h.5c.547.066 1.098.103 1.65.11v-.16h1.08a11.162 11.162 0 0 1 3.14.27 4.56 4.56 0 0 1 2.19 0l-.11-.07h1.6c1.865.03 3.725.217 5.56.56 1.546.313 3.122.461 4.7.44h.2a.937.937 0 0 1 .38.22c.894-.043 1.79-.013 2.68.09a8.39 8.39 0 0 1 2.52.47c.793.272 1.615.45 2.45.53v.51h.12a.286.286 0 0 0-.11-.19c.084.038.171.072.26.1.07-.45.55-.45.9-.45h.15l.25.17 1.05.1-.7-.49 2.47.57c.36.044.704.178 1 .39l1.26.23c1 .17 2 .36 3.43.54v.25c.741.077 1.467.27 2.15.57.399.18.824.298 1.26.35h.23l.14-.09c.24-.13.43-.11 1.49.22l.1-.3a27.99 27.99 0 0 0 3.49.79l.53.1V8.5c.46.11.84.22 1.17.33l.33.11v-.08l.69.33 1.59.55v-.07l.65.19.74.13c1.49.26 1.8.44 2.15.72.433.303.934.495 1.46.56a2.941 2.941 0 0 1 1.49.24l-.1.31.41.22c.61.165 1.206.382 1.78.65.257.12.521.227.79.32v.09l.43.19a.785.785 0 0 1 .32.06c.677.324 1.388.572 2.12.74.913.222 1.804.53 2.66.92h.18a1 1 0 0 1 .74 0l.12.05c.648.345 1.337.61 2.05.79.784.2 1.543.492 2.26.87l3.47 1.82-.41-.09c.83.42 1.55.87 2.35 1.37.8.5 1.75 1.1 3 1.75l-.07.13h.08c.46.27.904.567 1.33.89.288.056.569.143.84.26l.38.15 2.81 1h-1.55c.318.218.608.477.86.77l.58.29c.209.114.426.214.65.3l.12.07a6.734 6.734 0 0 1 2.13 2.18c.17.26.34.52.56.8l.5-.42c.38.365.716.775 1 1.22.375.374.71.786 1 1.23.198.312.418.61.66.89l.13.15v.2c0 .25 0 .34.39.87l.06.11c.123.265.204.549.24.84a6.89 6.89 0 0 1 1.7 3.61c.258.788.429 1.603.51 2.43.037.397.104.792.2 1.18v.14a9.492 9.492 0 0 1-.49 2.41c-.02.217-.063.432-.13.64v.12l-.08.32v.19l-.08.11-.18.69a2.649 2.649 0 0 1-1.08 1.72c-.099.07-.192.147-.28.23l.24.17-.22.32c.08.55-.52 1.23-1.24 2a14.7 14.7 0 0 0-1.06 1.27 5.385 5.385 0 0 1-1.84 1.7c-.33.23-.65.49-1 .77s-.87.7-1.4 1.07c-.85.4-1.94 1-3.08 1.69l-1.64.93a.916.916 0 0 1-.18.43l-.07.1-.05-.07c-.239.16-.524.238-.81.22l-.45.63c-.24.296-.54.538-.88.71h.2l-2.16 1c-.978.443-1.979.83-3 1.16-.68.23-1.45.48-2.76 1l-2.49 1-.22.44-.21.06-.77.23.08.26-.61.22c-1.26.534-2.574.926-3.92 1.17h-1c-.73.19-1.51.42-2.3.69-.22.45-1.08.75-3.74 1.55a23.966 23.966 0 0 0-3.45 1.2h-.15c-2 .41-3.83.89-5.79 1.4-1.96.51-4.2 1.09-6.66 1.61l-3 .63 1.5-.87a.098.098 0 0 1-.05 0c-.311.05-.618.116-.92.2a2.269 2.269 0 0 1-.39.08l-1.7.46V73l-.53.12c-.2 0-.37.08-.53.1a4.643 4.643 0 0 0-.78.21 2.528 2.528 0 0 1-1 .48l-3.39 1.18 1.62-1.14-.67.14-.05-.21c-.44.09-.78.19-1.12.29-.656.197-1.324.348-2 .45v.15l-1.44.16a52.142 52.142 0 0 1-6.86.52v.12a2.168 2.168 0 0 1-.5.08c-2 .27-4.09.39-6.14.5-1.77.1-3.47.2-4.88.39l.55.38h-2.37a8.839 8.839 0 0 0-1.16 0 .583.583 0 0 1-.5.23h-2.12a37.987 37.987 0 0 1-6.15.18c-1.18 0-2.3-.08-3.58 0-1.13.65-4.46.67-4.91.67-.84-.02-1.73 0-2.56 0Zm-10.14-1.33c1.37 0 2.57.11 3.73.17 2.87.14 5.59.28 9 .16a21.25 21.25 0 0 0 4.3-.44v-.2h.48c1.35-.06 2.57 0 3.75 0h.8l-.09-.05a.917.917 0 0 1-.55-.31h-.78c-1.81 0-3.62.16-5.37.31-.77.07-1.52.14-2.25.19h-.16c-.39-.07-.86-.1-1.27-.14a5.267 5.267 0 0 1-1.21-.18h-8.69a11.586 11.586 0 0 0-2.13 0h-.11l.5.35-2.54-.25a.87.87 0 0 1-.41.17 4.295 4.295 0 0 1-.82.06l-.47-.07-.12.09h-.19a1.998 1.998 0 0 1-1.33-.5c-2.72 0-5.42-.13-8.15-.25l.36.25-1.87-.16a32.659 32.659 0 0 0-5.63-.17h-.24a2.197 2.197 0 0 1-.39-.18h-.38v.15l-5.1-.56h-.15c-1.639.09-3.282.03-4.91-.18l-.2-.08-.26-.19-.68.12-1.15-.34v.23l-.56-.06a8.594 8.594 0 0 1-1.71-.38 6.001 6.001 0 0 0-1.17-.29c-4-.16-3.32 0-6.18-.16h-.3l-.08-.17a13.341 13.341 0 0 0-2.2-.32 10.32 10.32 0 0 1-2.8-.5 80.167 80.167 0 0 1-10.22-1.45l-2.68-.48-.89-.07a6.699 6.699 0 0 1-2.12-.47l-.28.39c.81.21 2.39.48 3.34.65h.28v-.27l.64.19a53.468 53.468 0 0 0 8.37 1.54l1.94.26.73-.34h.16a9.693 9.693 0 0 1 2.26.69l.24.11 1.09.2c2.5.46 3.92.6 5.57.76l1.74.17v-.2l.59.1c.47.08 1.06.17 1.66.25.6.08 1.16.16 1.63.24 1.642.01 3.282.127 4.91.35 2.952.406 5.931.57 8.91.49h.34l.26.52c.49 0 1 0 1.53.08s1.28.07 1.79.07c.24-.37.74-.33 1.91-.22.41 0 .83.07 1.15.07h.11c.483-.019.963.092 1.39.32 1.85-.06 4 0 6 0 2.442.101 4.889.078 7.33-.07Zm22.16-.3a32.64 32.64 0 0 0 4.23-.1v-.1h2.11l.92-.16a6.588 6.588 0 0 1 1.63-.06l.5-.11a45.22 45.22 0 0 1 6.21-.6c2-.12 4.11-.23 6-.5h.08l.19-.11.15-.11h.18a47.25 47.25 0 0 0 6.83-.5h.26v-.14a14.648 14.648 0 0 0 3-.56 14.994 14.994 0 0 1 3.2-.61v.22c.185-.004.37.016.55.06.141-.036.274-.1.39-.19a.996.996 0 0 1 .39-.22.766.766 0 0 1 .39-.32l3.32-.88h.2a8.645 8.645 0 0 1 1.41-.28l.81-.12-.1.29.35-.07c.38-.08.74-.15.95.05 2.09-.45 4-.94 5.75-1.41 2-.5 3.8-1 5.78-1.39a24.076 24.076 0 0 1 3.58-1.25c.93-.28 2.1-.63 2.74-.89l-.3-.21 1-.43c1.11-.39 2.19-.71 3.16-.95v-.05c1.19-.31 2.69-.76 3.89-1.12l1.63-.49.24-.49.21-.07c.445-.11.867-.297 1.25-.55a4.116 4.116 0 0 1 1.67-.63l.31-.06c1-.38 1.6-.59 2.17-.78.33-.11.64-.21 1-.34l1.69-.78c.19-.09.43-.19.71-.29l.17-.07a.996.996 0 0 1 .36-.58l-1.16.25 3.48-1.82c.84-.43 1.77-1 2.68-1.49 1.16-.67 2.27-1.31 3.09-1.69.43-.3.86-.66 1.27-1 .41-.34.7-.57 1-.81a8.575 8.575 0 0 0 1.29-1c.408-.655.884-1.265 1.42-1.82.13-.14.29-.32.43-.49-.21-.28 0-.68.05-.82.073-.188.157-.371.25-.55l-.22.16 1.69-2.36c.075-.119.136-.247.18-.38.051-.173.125-.337.22-.49.023-.191.066-.379.13-.56.046-.147.079-.298.1-.45v-.14c.227-.692.381-1.406.46-2.13-.1-.412-.173-.83-.22-1.25a11.057 11.057 0 0 0-.47-2.32 5.872 5.872 0 0 0-1.67-3.37.716.716 0 0 1-.14-.12l.68-.71a.57.57 0 0 0-.37 0 .436.436 0 0 0-.23.38 2.99 2.99 0 0 0-.16-.48 2.191 2.191 0 0 1-.53-1.22 7.576 7.576 0 0 1-.62-.87l-.42-.6.27.76-1.46-1.28a7.397 7.397 0 0 1-1.45-1.73 5.66 5.66 0 0 0-1.81-1.87 6.389 6.389 0 0 1-.71-.34c-.22-.11-.44-.22-.65-.3l-.34-.12v-.22a12.224 12.224 0 0 0-1.08-.85 6.693 6.693 0 0 1-.67-.53l-.24-.09-.12-.05v.54l-.84-.78a9.683 9.683 0 0 0-1.37-.94 4.493 4.493 0 0 1-1-.8c-.74-.43-1.36-.82-1.93-1.17a21.383 21.383 0 0 0-3.43-1.83l-.22.46-.41-.12a10.538 10.538 0 0 1-2.08-.93 7.615 7.615 0 0 0-2.19-.9v-.33l-.41-.21.14-.33a10.798 10.798 0 0 1-1-.48c-.28.09-.581.09-.86 0h-.14a13.205 13.205 0 0 0-2.54-.88c-.48-.13-.94-.26-1.37-.41h-.3l-.1-.05c-.51-.27-1-.48-1.41-.65a5.338 5.338 0 0 1-.8-.39l-.21-.14c-.436-.176-.88-.33-1.33-.46a6.443 6.443 0 0 1-1-.56l-.42-.09.4.26c.19.111.387.211.59.3a8.388 8.388 0 0 1 2.16 1.25c1.18.49 2.41.94 3.71 1.41 1.58.58 3.21 1.17 4.81 1.88.198-.005.396.032.58.11a45.903 45.903 0 0 1 4.31 2.21l.15-.21.38.19a46.668 46.668 0 0 1 9.63 6.37c.819.459 1.57 1.031 2.23 1.7l.09.11a7.071 7.071 0 0 0 1.64 1.66l.65.55.85.74v-.4l.95 2 .36.79c.31.773.684 1.519 1.12 2.23l1.32-.46-.87 1.21a5.3 5.3 0 0 0 .2.71c.246.591.358 1.23.33 1.87a8.004 8.004 0 0 1 0 3.95l-.34 2.1-.28-.79c0 .1-.07.19-.1.28.09.48-.27 1-.65 1.51-.196.251-.37.519-.52.8a.859.859 0 0 1-.1.75l-.14.29h-.19a13.479 13.479 0 0 0-1.64 1.78l.2.24a44.598 44.598 0 0 1-10 7.56h.15l-1.71 1.2a5.615 5.615 0 0 1-2.93 1.32c-.673.07-1.325.27-1.92.59a115.522 115.522 0 0 1-22.13 7.88h-.11a1.708 1.708 0 0 1-.37 0 2.372 2.372 0 0 1-1.07.2h-.09a45.648 45.648 0 0 1-6.13 1.49c-1.968.293-3.9.782-5.77 1.46h-.17c-1.458.15-2.907.377-4.34.68-1.653.34-3.322.594-5 .76-.13.24-.48.31-.89.39l-3.91.35c-1.981.15-3.951.417-5.9.8-2.739.535-5.513.869-8.3 1a4.062 4.062 0 0 1-1.86.33h-.16l-.13-.09a.567.567 0 0 1-.16-.15c-2.44.18-3.69.24-5.34.31l-1.31.06c-.19.2-.6.26-1.24.35a6.784 6.784 0 0 0-.78.14l-.15.15Zm-93.71-7.38c1.533.62 3.13 1.072 4.76 1.35h.1l.6-.21a8.64 8.64 0 0 0-.72-.24l-.72-.08a30.31 30.31 0 0 1-4.02-.82Zm-7.29-2 .72.17c.674.109 1.337.28 1.98.51.176.077.356.144.54.2a.43.43 0 0 1 .23 0c-.91-.29-1.72-.58-2.36-.81a5.757 5.757 0 0 1-1-.13h-.12a.86.86 0 0 1-.45-.38 1.15 1.15 0 0 1-.58-.16h-.09l-3.46-.81.18.12c1.21.207 2.405.487 3.58.84l.59.32.24.13Zm-4.77-1.51h1.21a112.933 112.933 0 0 1-6.11-1.84h-.63l.66.27c.73.31 1.54.65 2.6 1v-.08h.44c.644.082 1.265.29 1.83.61v.04Zm-9.21-3 .87.41v-.11l-.87-.3Zm-1.26-.36h.24l-.13-.06a1.437 1.437 0 0 0-.3-.11v-.38c-.6-.26-1.19-.53-1.77-.82h-.3c.37.21.67.42.92.59l.42.3.54.2c.12.097.246.184.38.26v.02Zm-3.57-2 .52.14-.78-.4.26.26Zm-3.58-1.68c.65.291 1.318.542 2 .75l-1.82-1-.28-.16-.21.07.31.34Zm-1.25-.45c.122.024.243.057.36.1l-.71-.31.35.21Zm-10.45-8.12c.17.053.33.138.47.25l-.06-.07c-.32-.344-.617-.708-.89-1.09l-.11.2.23.29.36.42Zm-4.31-10.85c0 .22.05.44.07.65l.09-.26c.16-.46.34-1 .6-1.61a.57.57 0 0 1-.3-.26c-.19-.33-.07-.73.26-1.51l.06-.09a.65.65 0 0 1 .7-.28v-.06c.049-.164.116-.322.2-.47l2.53-4.1-.83 2.31c.103-.144.19-.298.26-.46a1.39 1.39 0 0 1 .51-.67 1 1 0 0 1 .14-.44l.09-.18-.08-.09.61-.86a1.07 1.07 0 0 1 .09-.77l.06-.14.12-.09.44-.32.47-.34.17-.23v.14a4.27 4.27 0 0 1 1.66-.84l.12-.17h-.54l1.31-.91.85-.6a21.493 21.493 0 0 1 4.44-2.7c.092-.133.207-.248.34-.34l-.28.07 2.3-1.6a8.003 8.003 0 0 1 2.55-1.05 5.212 5.212 0 0 1 1.72-1c.424-.18.836-.391 1.23-.63l.07-.05-.18.08-.84.34-1.63.68.33-.46a16.388 16.388 0 0 0-3.15 1.82 15.741 15.741 0 0 1-2.73 1.63l-1.61.71v.33l-.31.13c-.33.14-.6.23-.83.31a5.002 5.002 0 0 0-1.92 1.12 37.52 37.52 0 0 0-6.37 6.41 10.94 10.94 0 0 0-2.81 6.84l.02.01Zm2.92-4.35-.16.45c.076-.115.136-.24.18-.37a.24.24 0 0 1-.02-.08Zm228-3.82.38.53.19.26v-.79h-.57ZM25.859 19.04h.11a11.322 11.322 0 0 0 1.89-.59v-.27c-.36.2-1 .49-2 .86Zm2.55-1.18c-.143.109-.297.203-.46.28l.28-.08c.82-.23.86-.27 1.12-.47l.4-.3.15-.06c.3-.118.618-.179.94-.18l.28-.17c.39-.091.783-.162 1.18-.21.336-.035.67-.088 1-.16.115-.037.226-.088.33-.15v-.28l.89-.15.65-.41 2.16-.5c.35-.14.61-.26.82-.36l-1.21.34v-.55c-.6.11-1.25.25-1.78.37-.87.29-1.28.45-1.48.53v.11c-.12.28-.42.48-1.28.84-.52.18-1.06.35-1.61.52l-1.2.38v.07l-.21.15a2.1 2.1 0 0 1-.93.44h-.04Zm190.06-.12.44.19.07-.15-.47-.11-.04.07Zm-16.79-5.42.33.08h.09l-.63-.44.62.27-.28-.4a2.992 2.992 0 0 1-.89-.48l-.61-.14-.35.12a4.278 4.278 0 0 1-2.13-.34c-.44-.12-.9-.25-1.23-.31h-.11c-.29-.13-.68-.29-.78-.61l-.39-.1-4.55-1.06a3.52 3.52 0 0 1-.84 0l-.94-.27c.74.2 1.46.42 2.18.63.72.21 1.39.41 2.14.62h.13l.52.16c.975.267 1.936.584 2.88.95v-.08c.597.16 1.177.381 1.73.66.337.18.692.324 1.06.43.332-.081.682-.057 1 .07l1.09.25-.04-.01Zm-4.24-2.46.42.12-.16-.11-.26-.01Zm-15.3-2.31.3.08.7.19-1.39-.73 2 .38-.06-.07c-1-.15-1.79-.29-2.57-.43-.78-.14-1.32-.24-2.1-.36h-.11c.43.09.86.21 1.31.32.61.15 1.24.31 1.91.45l.01.17Zm-94.53-.36-.43.06a4.41 4.41 0 0 0-1.19.22v.05l.42-.1a7.841 7.841 0 0 1 1.21-.21l-.01-.02Zm90.5-.75.28.05v-.05h-.28Zm-10.25-1.5h.25c.65.09 1.16.16 1.55.24l.08-.16h.12-.26a10.202 10.202 0 0 0-1.74-.08Zm-9.86-1.13.53.06c.71.08 1.44.16 2.19.22-.9-.14-1.83-.27-2.81-.34l.09.06Zm-33.08-.42.11.44a.507.507 0 0 0 .2-.49l-.31.05Zm25.09.12 1.62.16.69.07a9.735 9.735 0 0 0-2.31-.25v.02Z"/><path d="M131.139 78c-2.29 0-4.33-.11-6.46-.22-1.16-.06-2.35-.12-3.64-.16-2.447.167-4.9.21-7.35.13H107.169v-.94a.452.452 0 0 0-.18.31.433.433 0 0 0 .18.44 2.584 2.584 0 0 0-.94-.14c-.34 0-.8 0-1.24-.08h-.54l-.16.07a7.42 7.42 0 0 1-3 .13c-.6 0-1.22-.08-1.79-.08h-.32l-.23-.48a60.458 60.458 0 0 1-8.75-.51 35.807 35.807 0 0 0-4.79-.35h-.12c-.48-.09-1.08-.17-1.67-.25l-1.1-.16v.14l-2.82-.3c-.73-.07-1.41-.13-2.16-.22l.94.44-3.73-.65a10.156 10.156 0 0 1-2.26-.7 8.94 8.94 0 0 0-1.89-.61l-.71.33h-.15l-2.06-.28a60.024 60.024 0 0 1-7.76-1.35v.12c-.39-.08-1-.17-1.56-.28-3-.51-4-.73-4.3-1a14.597 14.597 0 0 1-3.47-.83l.41.56-1.73-.8a17.803 17.803 0 0 0-3.22-1.22v.09a7.263 7.263 0 0 1-1.59-.48 8.266 8.266 0 0 0-1.06-.36l-.06.14a7.781 7.781 0 0 1-2-.77l-.5-.27a31.159 31.159 0 0 0-3.37-.78h-.14l-.13-.08a6.001 6.001 0 0 0-.89-.5v.26l-.64-.19c-.93-.27-1.68-.53-2.34-.79h-.16a2.851 2.851 0 0 1-.7 0h-.08l-.15.29c-.5-.23-1.1-.53-1.73-.85l-1.8-.88-1.69-.58a3.899 3.899 0 0 1-1-.53l-1.29-.45h-1.35a1.89 1.89 0 0 1-1.24-.42l-.22-.24v-.26a.44.44 0 0 0 .26.31v-.52l-.4-.15-.92-.31.39-.27a.49.49 0 0 1-.07-.49c-.6-.19-1.22-.44-1.76-.66a7.603 7.603 0 0 0-1.07-.39h-.12l-.14-.06-.75-.47a26.18 26.18 0 0 1-5.19-3.73v.53l-.82-.69c-.5-.42-2.79-2.37-3.23-3.42a.46.46 0 0 1-.26 0v.13l-.83-.72a9.91 9.91 0 0 1-3.27-5.43 31.848 31.848 0 0 1-.88-5.46h-.05c-.23-2.59.8-5.37 3-8a38.311 38.311 0 0 1 6.53-6.57 5.91 5.91 0 0 1 2.18-1.37c.156-.045.31-.098.46-.16v-.32l2.21-1a14.105 14.105 0 0 0 2.56-1.53 15.599 15.599 0 0 1 4.92-2.49l1.41-.43-.09.12c.45-.18.94-.39 1.29-.55l-.7-.5h1.58a.791.791 0 0 0 .46-.11v-.24l.34-.12c.48-.17 1-.34 1.58-.51l1.53-.49c.222-.09.44-.194.65-.31v-.17c.13-.28.33-.42 2.18-1 4.11-.95 4.15-.83 4.29-.36l.07.25a.81.81 0 0 1 .55.7c0 .5-.5.84-2.17 1.52l-1 .22v.09c-.64.342-1.339.559-2.06.64l-.29.1a2.18 2.18 0 0 1-.83.46c-.313.074-.63.128-.95.16l-.71.25a2 2 0 0 1-.71.41h-.11a.75.75 0 0 1-.8-.2l-.29.22c-.232.197-.5.346-.79.44l.07.19-.76.28c-.761.312-1.547.56-2.35.74-.32.19-.78.41-1.27.64-.34.15-.85.39-1.14.56l.34.48h-1c-.58.097-1.143.279-1.67.54 0 .31-.45.55-1.37 1.08l-.75.44 1.21.28-2.1.48c-1.11.26-3 1.59-4.47 2.66l-.24.17a1 1 0 0 1-.63.49 2.999 2.999 0 0 0-.46.53c-.12.186-.257.36-.41.52l-.23.23-.3-.1a4.8 4.8 0 0 0-1.12.67.65.65 0 0 1 .3.31l.82 1.7-1.35-.94c-.27.18-.73.58-.93.75l-.25.21c-.059.18-.136.355-.23.52v.08l.35.72h-.8c-.1 0-.15.14-.19.23a2.94 2.94 0 0 1-.58.89c-.12.31-.1.38-.09.4.08.35 0 .61-.39 1.24l-.06.11-.11.06a2.39 2.39 0 0 1-1.08.55.75.75 0 0 1-.57.21c0 .11-.07.19-.09.26a.77.77 0 0 1 .43.41l.11.22-.11.21c-.19.396-.357.804-.5 1.22h.06l-.24 1.22a11.6 11.6 0 0 0 .35 3.6l.1.51h.07l1.3.91h-1l.18.48c.31-.17.66.08.95.28l.15.16c.203.344.423.678.66 1 .213.271.401.563.56.87.277.477.613.917 1 1.31l.43.53a.68.68 0 0 1 0 .69 4.76 4.76 0 0 0 2 1.41 4 4 0 0 1 2 1.45c.138.152.253.324.34.51 0 .09.09.17.15.26l-.17-.48 1.22.76a5.85 5.85 0 0 1 1.53 1.2h.09l.51.16a4 4 0 0 1 1.49.84c.147.157.32.289.51.39l.47-.16.68.38a73.373 73.373 0 0 0 6.82 3.48 1.1 1.1 0 0 1 .71 0h.1a72.922 72.922 0 0 0 11.88 4l1.42.66h.13a.998.998 0 0 1 .46.09c.39.1.62.21.69.47l.42.06v-.1l.14.06a54.256 54.256 0 0 0 9.8 2.7v-.11c.84.104 1.662.326 2.44.66a6.001 6.001 0 0 0 1.62.46v-.12c1.36.23 2.74.48 4.11.73 3.362.7 6.766 1.18 10.19 1.44h.14l.12.09c.81.219 1.642.353 2.48.4.93.006 1.852.182 2.72.52 2.64.15 2 0 6 .16.474.058.94.169 1.39.33.327.106.661.19 1 .25v-.42l2.21.66.92-.16 1.27.17v.29c1.262.076 2.528.076 3.79 0h.23l3.17.35.05-.17c.355.088.716.149 1.08.18.25-.15.55-.17 1.52 0v.36l.12-.17h.08a26.9 26.9 0 0 1 3.88 0l-.16-.11 1.75.09c3.79.17 7.5.33 11.23.33v.16h2.15c.093-.01.186-.01.28 0a15.14 15.14 0 0 0 1.6 0c.758-.071 1.521-.071 2.28 0h9.27v.14h.62c.42 0 .89.08 1.3.15l2.17-.18c1.77-.16 3.61-.32 5.46-.32 1.09 0 1.33 0 1.53.25l.74-.12.55-.09v-.23l2.08-.1c1.89-.08 3.26-.14 6.53-.4l3.83-.29-.44.15c1.93-.19 4-.53 5.92-.88a57.54 57.54 0 0 1 5.77-.8l3.49-.29c.13-.23.46-.3.74-.37a46.193 46.193 0 0 0 5.69-.83c1.4-.26 2.72-.52 4.35-.67a31.548 31.548 0 0 1 5.93-1.52 37.123 37.123 0 0 0 6.58-1.53l4.53-1.94-2.39 1.71a116.12 116.12 0 0 0 21.07-7.6c.22-.11.41-.2.59-.27h-.37l3.36-1.37a41.257 41.257 0 0 0 11.84-8.06l-.11-.07a13.135 13.135 0 0 1 2.35-2.7 1.347 1.347 0 0 1 0-.22v-.14c.172-.469.422-.905.74-1.29l.2-.28v-.3a.893.893 0 0 1 .28-.6c.1-.23.2-.56.27-.78.062-.372.228-.719.48-1a6.23 6.23 0 0 0 0-3.28l-.06-.16v-.16a3.545 3.545 0 0 0-.28-1.48 5.195 5.195 0 0 1-.24-.9 8.32 8.32 0 0 1-1.5-2.69c0-.08-.07-.17-.11-.25v.5l-1.27-1.76c-.54-.73-.86-1.16-.84-1.54l-.31-.25a8.17 8.17 0 0 1-1.82-1.86 8.688 8.688 0 0 0-2-1.53l-.11-.08a43.625 43.625 0 0 0-5.49-4.12l-.37.27-.27-.16c-.72-.42-1.36-.81-2-1.18a53.318 53.318 0 0 0-5.31-2.93l-.08.13a59.868 59.868 0 0 0-6.06-2.47c-1.1-.4-2.15-.78-3.16-1.19-.52-.12-1.68-.45-1.81-1l-1-.5-.19-.1c-.148.052-.305.07-.46.05l1.55 1.08-3.42-1.19a2.734 2.734 0 0 1-.89-.41v.09a9.894 9.894 0 0 1-2-.73 3.71 3.71 0 0 0-.44-.21v.28l-.73-.38a18.53 18.53 0 0 0-3.22-1.15 4.477 4.477 0 0 1-.47-.13c-.84-.23-1.61-.46-2.37-.69-1.69-.5-3.3-1-5.4-1.4a1.46 1.46 0 0 1-.85 0 4.063 4.063 0 0 0-1.07-.06l-.18.13-.19-.06-1-.26-.94-.24-3.48-.72-.71-.11c-.54-.08-1.07-.16-1.55-.25l.06-.47c-.12.008-.241.008-.36 0a8.672 8.672 0 0 0-2.16-.15h-.2l-.49-.12a10.199 10.199 0 0 0-1.75-.35l-.14.27h-.48l-.1-.05a11.614 11.614 0 0 0-1.93-.35c-.75-.1-1.52-.21-2.15-.35v.36l-1.32-.61h-.35v.2h-.54c-.65 0-1.08-.07-1.27-.31h-.4c-1.21-.07-2.38-.2-3.52-.33l-1.5-.25.45.21-1.23-.21h-.28a.759.759 0 0 1-.49.38h-.2l-3.69-.38c-2.66-.26-5.41-.54-8-.65v-.2c-.32 0-.79 0-1.17.06-.666.055-1.333.075-2 .06l-.57.21-.1-.13c-1.88 0-3.76-.1-6.12-.21l-1.28-.06-.86.1c-1.47.17-4.14.17-5.57.17h-.16a3.003 3.003 0 0 0-.67-.05 1.3 1.3 0 0 1-.38 0 41.457 41.457 0 0 1-6.19.38v.11h-.5a8.185 8.185 0 0 1-1.1-.05 30.402 30.402 0 0 0-4.83.36v.19c-.64 0-1.29.05-1.94.09-.65.04-1.34.08-1.94.08h-1.13l-.43.1-.46.11-.18-.13a1.67 1.67 0 0 1-1.16 0 1.003 1.003 0 0 0-.32-.06l.48.34h-3v.18l-.44.06c-.579.046-1.16.063-1.74.05l-.27.09a8.998 8.998 0 0 1-1.68.43c-.323.049-.64.125-.95.23l-2.46.52v-.22a12.21 12.21 0 0 0-2.65.24c-.45.08-.92.16-1.44.22l.23.16-1.09.26a6.81 6.81 0 0 0-1.13.35l-.18-.31v.47a5.751 5.751 0 0 0-1.37.21 9.1 9.1 0 0 1-2 .29 2.999 2.999 0 0 1-.87.27h-.15v-.15.17c-.49.06-.87.1-1-.15-.71.14-1.48.35-2.31.58-1.836.534-3.717.899-5.62 1.09-1.14.2-2 .29-2.69.37l-.39.05-2.06.72a25 25 0 0 1-3 .82l-.51.12c-.117.128-.252.239-.4.33l-.15.07h-.07.7l-4.25 1c-.11 0-2.14.5-3.56.72h-.11c-.33.062-.664.099-1 .11h-3l3.75-1.31.07.21h.59l.36-.33c.51-.47 1.64-.74 3.43-1.09l-2.31-.4 4.47-.35 1-.42a4.389 4.389 0 0 1 1.32-.37c.37-.042.732-.143 1.07-.3h.14l.59-.07v-.06c.181-.088.373-.151.57-.19a18.07 18.07 0 0 1 2.7-.57 4.63 4.63 0 0 0 1.4-.34v-.1c1.42-.28 2-.4 2.29-.1.248-.006.495-.026.74-.06l1.54-1.08.52.18c.285-.116.58-.206.88-.27.53-.07.87-.11 1.07.07.59-.16 1.29-.29 2-.43s1.5-.29 2-.45a1.32 1.32 0 0 1 .36-.15l.13-.28.26.07a.9.9 0 0 1 .25 0 5.61 5.61 0 0 1 1.47-.3l.54-.06c.11-.19.4-.29.93-.47h.25a9.91 9.91 0 0 0 2.66-.38c.56-.12 1.08-.24 1.49-.29h.3l.1.12a14.59 14.59 0 0 0 1.91-.22c.87-.13 1.84-.28 2.8-.35a19.856 19.856 0 0 1 3.51-.59c1.06-.15 2.14-.3 2.86-.42h.2l.17.12a9.43 9.43 0 0 0 2.15 0h.63v-.2l.71-.09-.14-.05 2.32-.2c.79-.07 1.62-.08 2.5-.09h1.42l-.6-.21h3.52a8.348 8.348 0 0 0 1.77-.25l.79-.54v.64h.21c.77-.07 1-.11 1-.12.255-.128.534-.2.82-.21h.24c.289.055.585.075.88.06.335-.028.673 0 1 .08a2.02 2.02 0 0 0 .4-.08 5.875 5.875 0 0 1 1.35-.1c2.41-.06 3.1-.06 3.32.23.9.05 1.8 0 2.73 0 1.12 0 2.32 0 3.61-.07a27.24 27.24 0 0 1 3.62 0c.9.07 2 .11 3 .15 1 .04 2.22.09 3 .18a6.64 6.64 0 0 0 1-.13l.11.38v-.42h.5c.547.067 1.098.103 1.65.11v-.16h1.08a11.162 11.162 0 0 1 3.14.27 4.6 4.6 0 0 1 2.2 0l-.02-.32h1.59c1.865.03 3.725.218 5.56.56a22.21 22.21 0 0 0 4.71.44h.19a.937.937 0 0 1 .38.22c.894-.038 1.79-.008 2.68.09a8.39 8.39 0 0 1 2.52.47c.793.272 1.615.45 2.45.53v.51h.12a.286.286 0 0 0-.11-.19c.084.038.171.072.26.1.08-.45.55-.45.9-.45h.15l.25.17c.3 0 .67.06 1.06.1l-.71-.49 2.47.57c.36.044.704.178 1 .39l1.26.23c1 .17 2 .36 3.43.54v.25c.741.077 1.467.27 2.15.57.398.183.824.3 1.26.35h.23l.14-.09c.23-.13.42-.11 1.49.22l.1-.3a27.99 27.99 0 0 0 3.49.79l.53.1v-.07c.47.11.84.22 1.17.33l.33.11v-.08l.69.33 1.59.55v-.07l.65.19.74.13c1.49.26 1.8.44 2.15.72.433.303.934.495 1.46.56a2.941 2.941 0 0 1 1.49.24l-.1.31.41.22c.61.165 1.206.382 1.78.65.257.12.521.227.79.32v.1l.43.18a.783.783 0 0 1 .32.06 10.14 10.14 0 0 0 2.12.74c.913.222 1.804.53 2.66.92h.18a1 1 0 0 1 .74 0l.12.05c.648.345 1.337.61 2.05.79.785.2 1.543.492 2.26.87l3.48 1.82-.42-.09c.83.42 1.55.87 2.35 1.37.8.5 1.75 1.09 3 1.75l-.07.13h.08c.46.27.904.567 1.33.89.293.056.578.146.85.27l.37.14 2.79 1h-1.53c.318.218.608.477.86.77l.58.29c.209.114.426.214.65.3l.12.07a6.734 6.734 0 0 1 2.13 2.18c.174.277.364.544.57.8l.49-.42c.38.365.716.775 1 1.22.375.374.71.786 1 1.23.198.312.418.61.66.89l.13.15v.2c0 .25 0 .34.39.87l.06.11c.123.265.204.549.24.84a6.889 6.889 0 0 1 1.7 3.61c.258.788.429 1.603.51 2.43.036.398.103.792.2 1.18v.14a9.493 9.493 0 0 1-.49 2.41c-.02.217-.063.432-.13.64v.11l-.08.33v.18l-.08.1-.18.7a2.638 2.638 0 0 1-1.08 1.72 1.936 1.936 0 0 0-.28.23l.24.17-.22.32c.08.55-.52 1.23-1.24 2a14.7 14.7 0 0 0-1.06 1.27 5.474 5.474 0 0 1-1.84 1.7c-.33.23-.65.49-1 .77s-.87.7-1.4 1.07c-.85.4-1.93 1-3.08 1.68l-1.64.94a.917.917 0 0 1-.18.43l-.07.1-.09.16c-.239.16-.524.238-.81.22l-.45.63c-.24.296-.54.538-.88.71h.2l-2.16 1c-.978.443-1.979.83-3 1.16-.67.23-1.44.48-2.75 1l-2.49 1-.21.44-.22.06-.77.23.08.27-.63.22c-1.257.53-2.568.92-3.91 1.16h-1c-.73.19-1.5.42-2.3.69-.22.45-1.08.75-3.73 1.55-1.183.31-2.34.711-3.46 1.2h-.15c-2 .41-3.84.89-5.8 1.4-1.96.51-4.19 1.09-6.65 1.61l-3 .63 1.5-.87a.098.098 0 0 1-.05 0c-.311.05-.618.116-.92.2a2.269 2.269 0 0 1-.39.08l-1.7.46V73l-.53.12-.52.1c-.27.046-.534.116-.79.21a2.528 2.528 0 0 1-1 .48l-3.41 1.19 1.63-1.15-.67.14-.05-.21c-.44.09-.78.19-1.12.29-.656.196-1.324.347-2 .45v.15l-1.44.16a50.613 50.613 0 0 1-6.86.52v.12a2.372 2.372 0 0 1-.5.08c-2 .27-4.08.39-6.13.5-1.78.1-3.48.2-4.89.39l.55.38H152.119a8.839 8.839 0 0 0-1.16 0 .583.583 0 0 1-.5.23h-2.12a37.987 37.987 0 0 1-6.15.18c-1.18 0-2.31-.08-3.58 0-1.13.65-4.46.67-4.91.67-.84-.02-1.73 0-2.56 0Zm-10.14-1.33c1.37 0 2.57.11 3.73.16 2.87.15 5.59.29 9 .17a21.25 21.25 0 0 0 4.3-.44v-.2h.48c1.35-.06 2.57 0 3.75 0h.8l-.09-.05a.998.998 0 0 1-.55-.3h-.78c-1.81 0-3.62.16-5.37.31-.77.07-1.52.14-2.25.19h-.16c-.39-.07-.86-.1-1.27-.14a4.678 4.678 0 0 1-1.21-.19h-8.69c-.709-.06-1.422-.06-2.13 0h-.11l.5.35-2.54-.25a.87.87 0 0 1-.41.17 4.295 4.295 0 0 1-.82.06l-.47-.07-.12.09h-.19a1.998 1.998 0 0 1-1.33-.5c-2.71 0-5.41-.13-8.14-.25l.36.25-1.88-.16a32.659 32.659 0 0 0-5.63-.17h-.24a2.197 2.197 0 0 1-.39-.18h-.38v.15l-5.1-.56h-.15c-1.639.09-3.282.03-4.91-.18l-.2-.08-.26-.19-.68.12-1.15-.34v.23l-.56-.06a8.304 8.304 0 0 1-1.7-.38 6.344 6.344 0 0 0-1.18-.29c-4-.16-3.32 0-6.19-.16h-.29l-.08-.17a13.341 13.341 0 0 0-2.2-.32 10.32 10.32 0 0 1-2.8-.5 79.993 79.993 0 0 1-10.21-1.45l-2.69-.48-.89-.07a6.43 6.43 0 0 1-2.12-.47l-.28.39c.81.21 2.4.49 3.35.65h.27v-.27l.64.19a52.597 52.597 0 0 0 8.47 1.56l1.92.26.73-.34h.16c.78.135 1.54.37 2.26.7l.24.09 1.09.21c2.5.46 3.93.6 5.58.76l1.73.17v-.2l.59.1 1.65.25 1.64.24c1.642.01 3.282.128 4.91.35a54.5 54.5 0 0 0 8.91.49h.34l.25.52c.5 0 1 0 1.54.08s1.27.07 1.79.07c.24-.37.74-.33 1.91-.23.41 0 .83.08 1.15.08h.1c.486-.02.969.09 1.4.32 1.85-.06 4 0 6 0 2.416.092 4.836.062 7.25-.09Zm22.16-.3a32.64 32.64 0 0 0 4.23-.1v-.1h2.11l.92-.16a6.588 6.588 0 0 1 1.63-.06l.5-.11a45.239 45.239 0 0 1 6.22-.6c2-.12 4.1-.23 6-.5h.08l.19-.11.15-.11h.18a47.24 47.24 0 0 0 6.82-.5h.27v-.14a14.661 14.661 0 0 0 3-.56 14.988 14.988 0 0 1 3.2-.61v.22c.185-.004.37.016.55.06.141-.036.274-.1.39-.19a.994.994 0 0 1 .39-.22.765.765 0 0 1 .39-.32l3.32-.88h.2a8.634 8.634 0 0 1 1.41-.28l.81-.12-.1.28.35-.06c.38-.08.74-.15.95.06 2.08-.46 3.94-.94 5.74-1.41 2-.51 3.81-1 5.78-1.4a24.495 24.495 0 0 1 3.6-1.25c.92-.28 2.09-.63 2.73-.89l-.3-.21.99-.43a31.861 31.861 0 0 1 3.16-.94v-.06c1.2-.32 2.71-.77 3.92-1.13l1.6-.48.24-.49.21-.07c.445-.11.867-.297 1.25-.55a4.116 4.116 0 0 1 1.67-.63l.31-.06c1-.37 1.59-.59 2.17-.78.32-.1.62-.2.95-.33l1.72-.79c.19-.09.43-.19.7-.29l.18-.07a.995.995 0 0 1 .36-.58l-1.14.25 3.48-1.83c.84-.44 1.78-1 2.69-1.5 1.16-.66 2.26-1.3 3.08-1.68.43-.31.86-.66 1.27-1 .41-.34.7-.57 1-.81a8.518 8.518 0 0 0 1.29-1c.406-.66.882-1.273 1.42-1.83.13-.14.29-.32.43-.49-.21-.28 0-.68.05-.82a4.32 4.32 0 0 1 .24-.53l-.21.15 1.69-2.37c.075-.119.136-.247.18-.38.051-.172.125-.337.22-.49.023-.191.066-.379.13-.56.046-.147.079-.298.1-.45v-.14a10.48 10.48 0 0 0 .46-2.13c-.1-.412-.173-.83-.22-1.25a11.056 11.056 0 0 0-.47-2.32 5.916 5.916 0 0 0-1.67-3.37.716.716 0 0 1-.14-.12l.68-.71a.51.51 0 0 0-.37 0 .435.435 0 0 0-.23.38 2.99 2.99 0 0 0-.16-.48 2.192 2.192 0 0 1-.53-1.22 8.294 8.294 0 0 1-.62-.86l-.42-.61.27.76-1.46-1.28a7.4 7.4 0 0 1-1.45-1.73 5.66 5.66 0 0 0-1.81-1.87 6.407 6.407 0 0 1-.71-.34c-.22-.11-.44-.22-.65-.3l-.34-.12v-.2a12.224 12.224 0 0 0-1.08-.85 6.693 6.693 0 0 1-.67-.53l-.17-.12-.13-.05v.54l-.84-.78a9.683 9.683 0 0 0-1.37-.94 4.518 4.518 0 0 1-1.06-.77c-.74-.43-1.36-.82-1.93-1.17a21.383 21.383 0 0 0-3.43-1.83l-.22.46-.41-.12a9.968 9.968 0 0 1-2.08-.93 7.774 7.774 0 0 0-2.19-.9v-.33l-.41-.21.14-.33a10.798 10.798 0 0 1-1-.48c-.28.09-.581.09-.86 0h-.14a13.205 13.205 0 0 0-2.54-.88c-.48-.13-.94-.26-1.37-.41h-.3l-.1-.05c-.51-.27-1-.49-1.41-.66a4.71 4.71 0 0 1-.8-.38l-.2-.14c-.3-.12-.68-.26-1.34-.46a6.443 6.443 0 0 1-1-.56l-.42-.1.39.27c.07 0 .3.16.6.3a8.388 8.388 0 0 1 2.16 1.25c1.18.49 2.41.94 3.71 1.41 1.58.58 3.21 1.17 4.81 1.88.198-.005.396.032.58.11a45.903 45.903 0 0 1 4.31 2.21l.15-.21.38.19a46.935 46.935 0 0 1 9.63 6.37c.819.459 1.57 1.031 2.23 1.7l.09.11a7.25 7.25 0 0 0 1.64 1.66l.65.55.85.74v-.4l.95 2 .36.79c.31.773.684 1.519 1.12 2.23l1.32-.46-.87 1.21a5.3 5.3 0 0 0 .2.71c.246.591.358 1.23.33 1.87a8.004 8.004 0 0 1 0 3.95l-.34 2.1-.28-.79c0 .1-.07.19-.1.28.09.48-.27 1-.65 1.51-.196.251-.37.519-.52.8a.859.859 0 0 1-.1.75l-.14.29h-.19a13.479 13.479 0 0 0-1.64 1.78l.2.24a44.692 44.692 0 0 1-10 7.57h.16l-1.71 1.2a5.613 5.613 0 0 1-2.94 1.31c-.673.07-1.325.27-1.92.59a116.182 116.182 0 0 1-22.12 7.88h-.12a1.708 1.708 0 0 1-.37 0 2.372 2.372 0 0 1-1.07.2h-.09a45.286 45.286 0 0 1-6.13 1.49c-1.968.293-3.9.782-5.77 1.46h-.17c-1.458.15-2.907.377-4.34.68-1.653.34-3.322.594-5 .76-.13.24-.48.31-.89.39l-3.91.35c-1.981.15-3.951.417-5.9.8-2.739.535-5.513.869-8.3 1a4.062 4.062 0 0 1-1.86.33h-.16l-.13-.08a.778.778 0 0 1-.16-.16c-2.45.18-3.71.24-5.36.31l-1.29.06c-.19.2-.6.25-1.24.35a6.784 6.784 0 0 0-.78.14l-.15.15Zm-93.71-7.38c1.533.62 3.13 1.073 4.76 1.35h.1l.6-.21a8.64 8.64 0 0 0-.72-.24l-.72-.08a30.31 30.31 0 0 1-4.02-.82Zm-7.29-2 .72.17c.674.109 1.337.28 1.98.51.176.076.357.142.54.2a.932.932 0 0 1 .23 0c-.91-.29-1.72-.58-2.36-.81a5.757 5.757 0 0 1-1-.13h-.12a.86.86 0 0 1-.45-.38c-.204 0-.405-.055-.58-.16h-.09l-3.46-.81.18.12c1.21.206 2.406.49 3.58.85.29.14.46.24.59.31l.24.13Zm-4.77-1.51h1.21c-2.28-.62-4.31-1.23-6.11-1.84h-.63l.66.27c.74.31 1.54.65 2.6 1v-.08h.44c.644.082 1.265.29 1.83.61v.04Zm-9.23-3 .89.41v-.12l-.89-.29Zm-1.24-.36h.25l-.14-.06a1.685 1.685 0 0 0-.3-.11v-.38c-.6-.26-1.19-.53-1.78-.82h-.29c.37.22.67.43.92.6l.42.3.54.2c.12.093.247.177.38.25v.02Zm-3.57-2 .52.14-.78-.4c.09.065.177.135.26.21v.05Zm-3.57-1.68c.65.291 1.318.542 2 .75l-1.82-1-.28-.16-.21.07.31.34Zm-1.26-.45c.122.024.243.057.36.1l-.71-.31.35.21Zm-10.45-8.12c.17.053.33.138.47.25l-.06-.07a14.008 14.008 0 0 1-.89-1.09l-.11.2.23.29.36.42Zm-4.31-10.85c0 .22.05.44.07.65l.09-.26c.16-.46.34-1 .61-1.61a.55.55 0 0 1-.31-.26c-.19-.32-.06-.75.26-1.51l.06-.09a.66.66 0 0 1 .7-.28v-.06a1.84 1.84 0 0 1 .2-.47l2.53-4.1-.83 2.31c.103-.144.19-.298.26-.46a1.39 1.39 0 0 1 .51-.67 1 1 0 0 1 .14-.44 1.14 1.14 0 0 0 .09-.19l-.09-.08.62-.86a1.07 1.07 0 0 1 .09-.77l.06-.14.12-.08.44-.33.48-.35.15-.21v.13c.485-.401 1.051-.691 1.66-.85l.12-.16h-.54l1.31-.91.85-.6a21.282 21.282 0 0 1 4.45-2.7 1.15 1.15 0 0 1 .33-.34l-.28.07 2.3-1.6a7.999 7.999 0 0 1 2.55-1.05 5.209 5.209 0 0 1 1.72-1c.425-.18.836-.391 1.23-.63l.07-.05-.18.08-.84.34-1.63.68.33-.46c-1.113.49-2.17 1.1-3.15 1.82a15.754 15.754 0 0 1-2.73 1.63l-1.61.71v.33l-.31.13c-.33.14-.6.23-.83.31a5 5 0 0 0-1.92 1.12 37.52 37.52 0 0 0-6.37 6.41 10.94 10.94 0 0 0-2.81 6.84l.03.01Zm2.92-4.35-.16.45c.076-.115.136-.24.18-.37a.24.24 0 0 1-.02-.08Zm227.98-3.78.38.53.19.26v-.79h-.57Zm-208.8-11.85h.11a11.322 11.322 0 0 0 1.89-.59v-.27c-.36.2-1 .49-2 .86Zm2.55-1.18c-.143.109-.297.203-.46.28l.28-.08c.82-.23.86-.27 1.12-.47.1-.07.22-.17.4-.29l.15-.07c.3-.118.618-.179.94-.18l.28-.17c.39-.091.783-.162 1.18-.21.336-.035.67-.088 1-.16.115-.037.226-.088.33-.15v-.28l.89-.15.65-.41 2.16-.5.82-.36-1.21.34v-.55c-.6.11-1.25.25-1.78.38-.502.151-.996.328-1.48.53a.417.417 0 0 1 0 .1c-.11.28-.41.48-1.27.84-.51.18-1 .35-1.59.51l-1.22.39v.07l-.21.15a2.1 2.1 0 0 1-.94.44h-.04Zm190.06-.12.44.19.07-.15-.47-.1-.04.06Zm-16.79-5.42.33.08h.09l-.62-.44.61.27-.28-.4a2.898 2.898 0 0 1-.89-.48l-.62-.14-.35.12a4.288 4.288 0 0 1-2.13-.34c-.44-.12-.9-.25-1.23-.31h-.11c-.29-.13-.68-.29-.78-.61l-.39-.1-4.55-1.06a3.52 3.52 0 0 1-.84 0l-.94-.27c.74.2 1.46.42 2.19.63.73.21 1.38.41 2.13.62h.13l.53.16c.972.268 1.929.585 2.87.95v-.08c.597.16 1.177.382 1.73.66.337.18.692.324 1.06.43a1.72 1.72 0 0 1 1 .06l1.09.26-.03-.01Zm-4.24-2.46.42.12-.16-.11-.26-.01Zm-15.3-2.31.3.08.69.19-1.38-.73 2 .38-.06-.07c-1-.15-1.79-.29-2.57-.43-.78-.14-1.32-.24-2.1-.36h-.11l1.31.32c.61.15 1.24.32 1.91.45l.01.17Zm-94.52-.36-.44.06a4.59 4.59 0 0 0-1.2.22v.05l.42-.1a7.76 7.76 0 0 1 1.22-.21v-.02Zm90.49-.75.28.05v-.05h-.28Zm-10.25-1.5h.24c.65.09 1.16.16 1.55.24l.08-.17h.13-.26a10.133 10.133 0 0 0-1.74-.07Zm-9.88-1.13.54.06c.71.08 1.44.16 2.19.22-.9-.14-1.83-.27-2.81-.34l.08.06Zm-33.07-.42.11.43a.49.49 0 0 0 .2-.49l-.31.06Zm25.09.12 1.63.16.68.07a9.735 9.735 0 0 0-2.31-.25v.02Z"/><path d="M131.139 78.5c-2.31 0-4.34-.11-6.49-.22-1.15-.06-2.34-.12-3.63-.16-2.439.166-4.886.21-7.33.13h-7.01v-.3c-.35 0-1.05 0-1.75-.11h-.4a7.776 7.776 0 0 1-3.209.17c-.59 0-1.2-.08-1.76-.08h-.7l-.22-.46a63.275 63.275 0 0 1-8.47-.53h-.12a33.223 33.223 0 0 0-4.62-.34h-.18l-1.71-.26-.53-.07v.12l-1.11-.12c-.53-.07-1-.12-1.47-.16l1.68.78-7.45-1.3a10.5 10.5 0 0 1-2.37-.73 8.475 8.475 0 0 0-1.64-.55l-.69.32h-.3l-2-.26a66.43 66.43 0 0 1-7.4-1.25v.1l-.48-.1-1.42-.25h-.12c-3-.51-3.92-.73-4.4-1a10.822 10.822 0 0 1-2-.4l.64.9-3.43-1.7a16.428 16.428 0 0 0-2.82-1.09h-.3a7.873 7.873 0 0 1-1.66-.49l-.57-.21v.14l-.45-.13a8.23 8.23 0 0 1-2.09-.81l-.48-.27c-.75-.24-2.92-.69-3.18-.72h-.25l-.24-.14-.15-.1v.08l-1.28-.37a23.52 23.52 0 0 1-2.28-.77h-.07a2.765 2.765 0 0 1-.5 0l-.21.42-.44-.2c-.51-.24-1.11-.54-1.75-.86l-1.79-.88-1.68-.6a4.18 4.18 0 0 1-1.09-.55l-1.15-.4h-1.24a2.41 2.41 0 0 1-1.52-.47l-.43-.3v-.48l-1.66-.58.83-.57c-.47-.17-.93-.36-1.34-.53-.41-.17-.85-.34-1-.37H18l-.14-.12-.81-.5a41.009 41.009 0 0 1-4.41-3v.43l-1.65-1.38a23.33 23.33 0 0 1-2.69-2.6l-1.63-1.41a10.4 10.4 0 0 1-3.42-5.68 29.751 29.751 0 0 1-.89-5l-.1-.48c-.24-2.73.83-5.63 3.1-8.4a37.998 37.998 0 0 1 6.6-6.61 6.491 6.491 0 0 1 2.39-1.39h.13v-.3l2.51-1.1c.878-.402 1.709-.898 2.48-1.48a16.19 16.19 0 0 1 5-2.56l1.7-.52-1.23-.86h3.13v-.21l.68-.23c.48-.17 1-.35 1.59-.52.59-.17 1.06-.33 1.52-.49l.4-.18c.25-.53.63-.72 2.49-1.32 4-.93 4.62-1.05 4.92 0v.05a1.18 1.18 0 0 1 .63 1.05c0 .84-.75 1.27-2.48 2l-.73.18-.14.12a6.24 6.24 0 0 1-2.21.68h-.1a2.63 2.63 0 0 1-.94.5 7.513 7.513 0 0 1-1 .18l-.56.2a2.85 2.85 0 0 1-.78.43l-.17.05a1.54 1.54 0 0 1-1-.06c-.145.116-.299.22-.46.31l.07.23-1.22.44c-.764.308-1.55.559-2.35.75-.33.19-.77.4-1.23.61-.18.08-.4.18-.61.29l.58.8h-2a6.275 6.275 0 0 0-1.27.4c-.16.33-.54.58-1.18 1l2.09.49-4.2 1a18.459 18.459 0 0 0-4.3 2.57l-.15.11a1.53 1.53 0 0 1-.75.59 2.724 2.724 0 0 0-.31.38 3.706 3.706 0 0 1-.46.57l-.28.24-.44-.16-.37.24 1.63 3.4-2.6-1.8-.61.5-.16.14a2.164 2.164 0 0 1-.1.25l.61 1.28H8.77a3.741 3.741 0 0 1-.57.89.2.2 0 0 0 0 .08 2.08 2.08 0 0 1-.46 1.56l-.13.2-.21.13a3.27 3.27 0 0 1-1.33.55c.03.044.057.091.08.14l.21.44-.21.43c-.15.31-.27.6-.38.88v.17l-.24 1.21a11.67 11.67 0 0 0 .26 3.47l.06.32 2.51 1.75h-1l.14.17c.184.322.388.632.61.93.233.316.44.65.62 1 .26.434.568.836.92 1.2l.51.64c.137.253.183.547.13.83a4.28 4.28 0 0 0 1.65 1.06c.877.29 1.64.85 2.18 1.6l.11.12 1.3.81c.515.297.992.656 1.42 1.07l.51.16a4.46 4.46 0 0 1 1.73 1 .942.942 0 0 0 .23.2l.45-.16.87.49a71.514 71.514 0 0 0 6.62 3.39c.262-.025.527.002.78.08h.15a72.291 72.291 0 0 0 11.85 4l1.42.64c.22-.007.438.034.64.12.28.057.539.188.75.38h.38l.17.07a56.073 56.073 0 0 0 9.22 2.59v-.1l.45.07a9.208 9.208 0 0 1 2.56.69c.341.15.696.266 1.06.35v-.11l.45.07c1.29.22 2.61.45 3.91.69h.2a80.87 80.87 0 0 0 10.13 1.43h.38l.24.17c.74.15 1.487.253 2.24.31.962.02 1.915.2 2.82.53 2.49.13 2 0 5.9.15.52.065 1.033.182 1.53.35l.3.1v-.46l2.74.81.88-.15 1.81.25v.26c1.31.08 2.68 0 3.23 0h.24l2.81.31.06-.21.46.09c.29.072.583.125.88.16a3.24 3.24 0 0 1 1.7 0l.46.07c.619-.032 1.24-.032 1.859 0l-.15-.1 3.48.16c3.79.17 7.49.33 11.21.33h.5v.32h1.65a1.41 1.41 0 0 1 .4 0H120.569c.762-.07 1.529-.07 2.29 0h9.69v.17h.16c.42 0 .88.07 1.28.13.67 0 1.35-.1 2.05-.17 1.85-.16 3.69-.32 5.56-.32a3.189 3.189 0 0 1 1.7.24l.52-.08h.14v-.29l2.53-.11c1.89-.09 3.24-.15 6.52-.4l5.89-.46c1.13-.17 2.26-.37 3.38-.56 2-.34 3.89-.67 5.5-.79h.31l3.28-.27c.259-.195.561-.325.88-.38a48.465 48.465 0 0 0 5.71-.83c1.38-.26 2.68-.51 4.31-.67a32.317 32.317 0 0 1 6-1.52 37.067 37.067 0 0 0 6.37-1.69l8.8-3.78-3.95 2.82a115.576 115.576 0 0 0 15.84-5.73l-.65.09 6.77-2.92a40.158 40.158 0 0 0 11.32-7.61l.18-.31c.641-.98 1.4-1.876 2.26-2.67v-.21c.185-.549.466-1.06.83-1.51l.11-.15v-.12c.006-.323.13-.633.35-.87.09-.21.16-.47.22-.66a2.84 2.84 0 0 1 .5-1.09c.245-.93.245-1.91 0-2.84l-.13-.32.09-.33a4.32 4.32 0 0 0-.28-1.18 8.406 8.406 0 0 1-.23-.81 6.011 6.011 0 0 1-1-1.62l-1.81-2.54a4.438 4.438 0 0 1-.91-1.57l-.15-.13a8.794 8.794 0 0 1-1.94-1.94 8.3 8.3 0 0 0-1.8-1.4l-.18-.11a42.362 42.362 0 0 0-5.21-3.87l-.35.26-.57-.33-2-1.17a55.728 55.728 0 0 0-4.91-2.74l-.08.14-.42-.2a55.686 55.686 0 0 0-6-2.44l-2.06-.76.4.28-6.83-2.37a6.744 6.744 0 0 1-.76-.31h-.14a11.155 11.155 0 0 1-1.85-.63v.32l-1.46-.77a17.962 17.962 0 0 0-2.91-1h-.2a5.028 5.028 0 0 1-.53-.14c-.77-.21-1.52-.43-2.25-.65-1.73-.52-3.29-1-5.29-1.39a2.12 2.12 0 0 1-1 0 7.766 7.766 0 0 0-.82-.07l-.29.21-.43-.15c-.33-.07-.64-.16-.95-.25l-.92-.24-4.14-.9-1.44-.32-.47-.09.05-.44a8.218 8.218 0 0 0-1.87-.14h-.4l-.51-.13c-.437-.123-.881-.22-1.33-.29l-.12.24h-.9l-.21-.1a16.148 16.148 0 0 0-1.79-.3c-.51-.07-1.06-.15-1.58-.24v.54l-1.67-.78v.11l-1.07-.07a2.86 2.86 0 0 1-1.45-.32h-.21c-.69 0-1.35-.1-2-.17l2.06 1-5.83-1.34a1.35 1.35 0 0 1-.55.32l-.2.08h-.22l-3.47-.33h-.22c-1.63-.16-3.3-.33-4.94-.46l-.08 1.25-.35-1.34c-.89-.07-1.76-.12-2.63-.16h-.48v-.16h-.63c-.665.058-1.332.078-2 .06l-.83.31-.17-.23c-1.81 0-3.63-.1-5.9-.21l-1.28-.06-.78.1c-1.49.17-4.18.17-5.62.17h-.25a2.67 2.67 0 0 0-.66 0l-.21.1v-.12h-.08a40.673 40.673 0 0 1-5.67.37V5l-1-.09a7.61 7.61 0 0 1-1.14-.06 33.19 33.19 0 0 0-4.25.3v.26h-.5c-.63 0-1.27 0-1.91.09-.64.09-1.36.08-2 .08h-1.09l-.77.18.23.16h-4.1v.22l-.879.1c-.562.055-1.126.075-1.69.06h-.07l-.18.06a9.002 9.002 0 0 1-1.75.45 4.588 4.588 0 0 0-.89.22l-3 .63-.07-.32c-.716.02-1.428.1-2.13.24h-.26l.13.09-2.19.52c-.313.068-.62.158-.92.27v.21h-.5a5.57 5.57 0 0 0-1.25.19 9.571 9.571 0 0 1-2 .31c-.225.097-.46.167-.7.21v.07l-.47.05h-.11l-.23.05a1.49 1.49 0 0 1-.9-.15c-.64.14-1.32.32-2 .52-1.75.525-3.544.89-5.36 1.09-1.11.2-1.93.3-2.67.38H72l-2 .7c-.45.16-.86.28-1.24.39h2l-8.49 2c-.7.16-2.37.53-3.6.73h-.13a7.77 7.77 0 0 1-1 .11h-5.9l7-2.44.1.26.24-.22c.367-.314.802-.54 1.27-.66l-3.95-.59 8.36-.65 1-.39a4.872 4.872 0 0 1 1.44-.4 3.268 3.268 0 0 0 1-.27l.2-.06.48-.09a2.26 2.26 0 0 1 .72-.23A17.996 17.996 0 0 1 72.18 9c.35 0 .7-.11 1-.17v-.17l.45-.09c1.4-.28 2.1-.42 2.55-.12h.39l1.65-1.15.58.2c.254-.095.514-.172.78-.23a2.7 2.7 0 0 1 1.25 0c.54-.13 1.15-.25 1.74-.37.59-.12 1.47-.29 2-.43l.26-.12.22-.48.61.19h.11c.48-.139.972-.23 1.47-.27h.35a3 3 0 0 1 1-.47l.25-.09.26.05c.835-.033 1.663-.16 2.47-.38.56-.12 1.1-.24 1.53-.3l.6-.08.11.16c.4 0 1.12-.14 1.59-.21.84-.13 1.79-.27 2.75-.35a22.175 22.175 0 0 1 3.56-.6c1.079-.15 2.139-.29 2.839-.41l.41-.08.27.19c.446.03.894.03 1.34 0l-.6-.21 4.65-.41c.39 0 .79-.05 1.19-.06l-.77-.27h6.45a9.882 9.882 0 0 0 1.56-.19l1.55-1.08v1.09l.55-.07c.221-.147.459-.265.71-.35h.24l.23.08c.24.017.481.017.72 0 .335-.018.671.006 1 .07l.22-.05a4.755 4.755 0 0 1 1.19-.11h.29c2.25-.05 3.1-.07 3.54.24h6.11c1.229-.08 2.462-.08 3.69 0 .87.07 1.92.11 2.94.15 1.18.05 2.26.09 3.06.18a4.65 4.65 0 0 0 .61-.08v-.09h.43l.25-.06v.06h.74v.1h.69v-.14h1.56a11.519 11.519 0 0 1 3.12.25 4.47 4.47 0 0 1 1.62-.06h2.1c1.886.035 3.765.222 5.62.56 1.52.31 3.069.458 4.62.44h.29c.168.059.329.136.48.23h.64c.686-.036 1.373 0 2.05.11a8.472 8.472 0 0 1 2.57.48c.762.257 1.55.425 2.35.5l.46.05h.16l-1.15-.82 5 1.15c.394.062.771.201 1.11.41l1.09.2c1 .18 2 .36 3.44.54l.47.06v.29c.642.07 1.268.25 1.85.53.361.143.737.244 1.12.3.4-.22.72-.19 1.45 0l.1-.3.47.14c1.121.326 2.259.587 3.41.78h.58c.36.08.66.16.93.24v-.09l.71.25.69.32 1.19.42h.35c.231.053.458.12.68.2l.66.11c.856.04 1.682.325 2.38.82.355.227.754.377 1.17.44a3.719 3.719 0 0 1 1.64.28l.45.16-.11.38c.606.156 1.196.37 1.76.64.241.113.488.213.74.3l.48.17v.1c.096.01.191.033.28.07.665.318 1.363.562 2.08.73.906.219 1.79.52 2.64.9.3-.091.62-.091.92 0l.18.07c.633.339 1.305.6 2 .78.817.208 1.606.514 2.35.91l7 3.64-1.08-.25c.71.44 1.52.92 2.51 1.46l.43.23-.08.15c.34.22.67.43.95.65.282.06.557.151.82.27l.36.14 5.59 1.94h-3l.22.12c.191.103.388.193.59.27l.18.09a7.293 7.293 0 0 1 2.32 2.36l.23.35.45-.38.32.34c.404.374.763.794 1.07 1.25.374.39.709.815 1 1.27.184.285.384.559.6.82l.27.29v.4c0 .15 0 .18.3.58l.08.15c.07.15.12.3.17.44h.18l-.12.13c.031.084.051.171.06.26a7.436 7.436 0 0 1 1.72 3.74c.253.79.421 1.604.5 2.43.035.378.099.752.19 1.12v.21a7.584 7.584 0 0 1-.33 2l-.4 1.86-.11.16-.16.61a3.245 3.245 0 0 1-1 1.8l.12.08-.42.58c0 .7-.62 1.38-1.37 2.22-.329.353-.64.724-.93 1.11v.06a5.75 5.75 0 0 1-2 1.89c-.3.21-.61.46-.93.72-.32.26-.93.74-1.46 1.12-.91.43-2 1.05-3.1 1.7l-.12.06-1.35.78a2.08 2.08 0 0 1-.21.39l-.15.19-.21.11c-.238.145-.504.24-.78.28l-.25.34h1.22l-4.52 2.08c-1 .454-2.025.852-3.07 1.19-.67.22-1.43.47-2.72 1l-2.31.94-.23.47-.44.13-.28.08.07.24-1.07.38a16.707 16.707 0 0 1-4 1.17h-1c-.65.17-1.34.38-2 .61-.41.53-1.4.85-3.91 1.61-1.15.312-2.276.706-3.37 1.18l-.22.09c-2.05.43-3.9.91-5.86 1.42-1.96.51-4.21 1.09-6.66 1.61l-6.06 1.26.55-.32h-.14l-.59.15c-.316.24-.676.417-1.06.52l-6.81 2.38 2.9-2c-.447.132-.901.238-1.36.32v.18h-.48l-1.38.16c-1.94.23-4.65.54-6.39.54l-.47.11c-.2.047-.404.078-.61.09-1.91.27-4 .39-6.08.5-1.27.07-2.48.14-3.57.24l.76.53H151.179a1.15 1.15 0 0 1-.72.24h-2.12a36.318 36.318 0 0 1-6.11.18h-.12c-1.12 0-2.18-.07-3.36 0-1.27.63-4.17.68-5.05.68-.88 0-1.72-.05-2.56-.05Zm6.53-1.4c-1.301.223-2.619.34-3.94.35a19.76 19.76 0 0 0 3.94-.35Zm4.51-.3.11.5v-.5h-.11Zm-28.65.45h6.38c-1.67.09-4 .07-6.21 0h-.17Zm-5.87 0h3.84-3.84Zm-.28-.12.07.09a.063.063 0 0 0 .007-.03c0-.01-.002-.02-.007-.03l-.07-.03Zm-5.989-.09c.639 0 1.259.08 1.769.07-.56-.01-1.3-.05-1.769-.08v.01Zm2.539-.23c-.2 0-.33 0-.36.07l-.14.21a1.93 1.93 0 0 0 .63-.13l.28-.13h.11l-.52-.02Zm43.93-.14h2.61l.14-.19h.31l-.45.06-.91.16-1.7-.03Zm-57.72-.69.07.51.06-.49h-.13v-.02Zm61.65.44h1.08l-.24-.17-.58.13h-.19l-.07.04Zm13.19-1.26-.15.06c-1.93.27-4 .38-6 .49-2 .11-3.65.21-5.1.42h.15c1.43-.2 3.13-.29 4.93-.39 2.05-.12 4.15-.24 6.09-.51l.08-.07Zm-48.31.69h.21c.142.032.286.052.43.06.22.019.441.019.66 0a.46.46 0 0 0 .2-.07l.16-.13.83.08-.1-.07 1.46-.09c-.552.045-1.106.059-1.66.04a.993.993 0 0 0-.24 0h-2.65v-.17h-2 1.36l.15.21c0 .06.21.19 1 .3l.19-.16Zm16.35-.02.55.06c-.21-.03-.4-.04-.58-.06h.03Zm9.68-.32.16.16a.373.373 0 0 0 .18.09l-.18-.09a.224.224 0 0 0-.15-.16h-.01Zm-1.32-.06c-1.54 0-3.07.13-4.56.26 1.51-.13 3.04-.25 4.57-.26h-.01Zm-20.29.11h1.11-1.11Zm23.82-.31v.12l.13-.13-.13.01Zm-62.95-.17.58.09 1 .14-1.58-.23v.16l-.55-.06-1-.1 1.52.16.03-.16Zm21.93 0 1.53.12-.24-.16h.74-.75l.2.14-1.48-.1Zm-10.28-.55 4.63.51v-.21l-.12.07h-.15a4.078 4.078 0 0 1-.71-.1v.13l-3.59-.39-.06-.01Zm58.52.24.23.27a4.078 4.078 0 0 0 1.52-.23l-1.57.15.75-.26-.93.07Zm13.14.1-.13.08.12-.06h.42l-.41-.02Zm-90.74-.43 2.89.35c-.91-.11-1.93-.27-3.24-.51l-1.14-.21c.599.248 1.223.43 1.86.54l-.37-.17Zm14.31.02.42.06v-.3l-.73-.11-.57.1.37-.06.51.31Zm84.21-.23v.13h.24v-.13h.25-.49Zm-101.81-.81c.518.133 1.023.31 1.51.53l.21.09-.22-.09a8.91 8.91 0 0 0-1.55-.53h.05Zm104.92.14-.47.13-.49.15.96-.28Zm-93.19-.12Zm-13.96.06.84.11h-.14l-.7-.11Zm108.29-.19.05.2h.22l.84-.14h-.06v-.17l-1.05.11Zm-99.81.01h1.97c-.6.04-1.05.04-1.98 0h.01Zm91.24-.42h-.51c-.91 0-1.93.18-3 .35a31.575 31.575 0 0 1 3.27-.36l3.27-.29-3.03.3Zm12.86-.53-1 .27a.192.192 0 0 0-.08.09l-.09.15-.18.07a.412.412 0 0 0-.22.13c-.086.063-.176.12-.27.17a1.27 1.27 0 0 0 .29-.19c.311-.168.65-.276 1-.32l.53-.1h.09l-.07-.27Zm-109.45.13c.53.11 1.27.19 2 .27-.91-.1-1.55-.19-1.97-.27h-.03Zm100.8-.26-.52.05a2.002 2.002 0 0 0-.36.13l-.12.22h.37c.18-.025.355-.076.52-.15l.11-.25Zm6.19.12h.2l.1-.09-.31.06.01.03Zm-110-.26c.76.08 1.49.14 2.19.17h.16c-.72-.02-1.49-.09-2.29-.17h-.06Zm-10.46-.22.79.14v-.16l.49.13-.76-.21v.19l-.52-.09Zm122.38-.93c-1 .14-1.95.32-2.91.51-.96.19-1.87.35-3 .51 1.07-.15 2-.34 2.94-.51.94-.17 2.01-.37 3.03-.51h-.06Zm4.51.76.28.22.75-.15.59-.13-.19-.19a1.938 1.938 0 0 0-.5.08l-.93.17Zm2.18-.18-.29.06h-.14l.43-.06Zm-2.5-.06.12.08v-.11l-.12.03Zm-127.68-1.2.89.06 2.7.49 1.56.28-1.52-.28h-.21l-3.45-.61.03.06Zm-8.29-.78 1.47.5c.84.3 1.698.54 2.57.72a31.133 31.133 0 0 1-4-1.25l.31-1c1.185.312 2.387.553 3.6.72h-.14a47.639 47.639 0 0 1-7.22-1.74l2.09.68-2.59.32.25.06.54.08c1.13.304 2.23.716 3.28 1.23l-.16-.32Zm138.07 1 .16.06c.9-.2 1.75-.4 2.58-.61l-1.41.29-1.33.26Zm12.04-1.82-.22.11-.13.05c-2 .41-3.82.88-5.76 1.39h-.1.07c2-.52 3.87-1 5.86-1.42h.07l.21-.13Zm-143.52 1.25.29.1-.32-.11.03.01Zm136.31-1.44c-1.15.28-2.42.53-3.67.78l-2.33.47 2.3-.46c1.26-.25 2.54-.51 3.7-.79Zm-138.68.79h.05l.72.08c.293.075.58.169.86.28l.18.07a8.629 8.629 0 0 0-1.79-.52l-.02.09Zm141.79-1.72-.25.1a9.704 9.704 0 0 1-1.09.4l.59-.2h.37l.38-.3Zm-151.88.26h.13l.55.16-.68-.16Zm161.4-.9c-.66.23-1.49.47-2.14.67.76-.28 1.52-.51 2.14-.72v.05Zm-162.81.56c.342.15.692.278 1.05.38v-.12l-.32-.08-.73-.18Zm173.54-6.41a114.352 114.352 0 0 1-18.44 6.38l-.81.2a114.053 114.053 0 0 0 19.25-6.63v.05Zm-174 6.15h.06l.18.1h-.08l-.16-.1Zm.44-1.13.13.26s.06.08.21.15h.06l.73.11-.44-.07h-.32l-.08-.31a1.913 1.913 0 0 0-.31-.19l.02.05Zm-4.21.11c.34 0 1 .18 1.59.32-.63-.19-1.24-.31-1.61-.37l.02.05Zm168.3 0 .09.06.05-.11-.14.05Zm-164.71-.16c.096.05.203.074.31.07h.2l-.12-.06a.777.777 0 0 0-.21 0l-.18-.01Zm166.51-.51c-.5.14-1 .31-1.56.49h.07c.49-.19 1.02-.34 1.49-.49Zm-173.51-.39c.49.17 1 .33 1.48.47v-.27l-.28-.06v.15l-.51-.08-.69-.21Zm174.42.14h1.09a20.769 20.769 0 0 0 3.68-1.11l.19-.07-.09-.29-.56.17c-1.06.32-2.36.71-3.48 1l-.46.18-.37.12ZM26.799 62.6c.12 0 .25.11.41.16l1.68.59c.66.31 1.28.62 1.86.91l1.29.64.09-.18h.34c.213.02.428.02.64 0h.42l-1.19-.48-2.49-1 .32.63-1.31-.55c-.3-.14-.59-.28-.88-.4l.14-.34-1.32.02Zm188.1.83-.21.06-.84.25.28-.08.77-.23Zm-185.17-.33h2.87a47.925 47.925 0 0 1-4.67-1.85h-.07a1.404 1.404 0 0 0-.35 0l-.2.08-.19-.08-1.48-.67 1.28.58.3.13v.13l1.29.66-.72-.2.5.22v-.06l1.1.38.07.27.27.41Zm185.41-.17v.09l2.67-1.09.64-.25-.4.08a3.667 3.667 0 0 0-1.49.56 4.49 4.49 0 0 1-1.38.61h-.04Zm-192.46-1.34c.212.125.456.184.7.17h1.51l.93.32h-.1l-.43-.3c-.25-.17-.54-.37-.88-.57l-1-.58-.33-.1-.1-.1-.09-.1h-.07l-.47-.47-.64-.19c-.71-.21-1.407-.46-2.09-.75l-.13-.06-.58-.77-.19.47.88.35c.55.22 1.15.47 1.72.65l.54.11-.2.5.29.41.43.16.31.12-.01.73Zm-.34-.21c.01-.04.01-.08 0-.12v.12Zm203-3.33-.69.67a.728.728 0 0 0-.21.29v.29l-.46.19-.67.27-1.72.8c-.37.14-.68.24-1 .35a29.042 29.042 0 0 0 3-1.15l1.2-.53.72-.41c.273-.136.515-.326.71-.56l.65-.9.32.07c.166-.027.326-.084.47-.17 0 0 .09-.13.09-.17v-.28h.08l-.91.49-1.58.75ZM23.389 59.4l.71.37 1 .48c-.57-.27-1.13-.56-1.68-.85h-.03ZM222.53 58l-3.67 1.49a4.918 4.918 0 0 1 1.45-.36 5.21 5.21 0 0 0 2.72-1.2l-.5.07Zm-199.8 1.06.42.21-.77-.41.35.2Zm-7.08-2.33 1.94 1.22.32.2.47-.88.71.31v.1l.42-.15-.17.06-.2-.12a3.517 3.517 0 0 1-.61-.46c-.2-.21-.36-.37-1.36-.76h-.07l-.14.29-.53-.49a5.047 5.047 0 0 0-1.39-1.11l.61 1.79Zm218.21-6.85-.06.05a41.605 41.605 0 0 1-12 8.16l.39-.06 2.41-1.31a43.266 43.266 0 0 0 9.26-6.84Zm-1.2 4.16c-.89.43-2 1.08-3.11 1.71l-1.45.82 1.34-.76.11-.06c1.16-.67 2.24-1.29 3.11-1.7v-.01Zm-221-.73.87 1c.77.763 1.626 1.434 2.55 2l-1.27-1.84-.17-.28a2.127 2.127 0 0 0-.27-.43 5.38 5.38 0 0 0-.49-.54h-2.13l-.23-.16-.55-.51c.53.52 1.14 1 1.68 1.51l.01-.75Zm223.68-4 .23.27-.32.33a48.44 48.44 0 0 1-4.57 4c.56-.31 1.09-.58 1.53-.79.44-.21.75-.59 1.15-.91.4-.32.74-.59 1.09-.84.411-.269.802-.566 1.17-.89.415-.65.894-1.256 1.43-1.81l.24-.26-1.45 1 .95-1.33h-.27c-.418.406-.815.834-1.19 1.28l.01-.05ZM8.769 51.22l3.6 1.63a3.92 3.92 0 0 0-.81-.38 5.381 5.381 0 0 1-2.23-1.54l-.29-.3.25-.33a.21.21 0 0 0 0-.17l-.13-.16-.15.38-.29.43-.2-.11.07.19c.046.127.106.248.18.36Zm227.94-.55a2.431 2.431 0 0 0-.23.36l.23-.36Zm-228.85-.15.16.06.23-.07a.83.83 0 0 0-.28-.15H7.8l-.87-1.12.64-1.22.49.65c.197.27.408.53.63.78a5.56 5.56 0 0 1-.83-1.2 6.996 6.996 0 0 0-.51-.8c-.238-.32-.458-.655-.66-1l-.08-.08a1.16 1.16 0 0 0-.39-.21l-.52.28-.49-1.41h-.13l-.22-1.16-.15-.77-.52-2.78-.54 1.56c.14 1.013.346 2.015.62 3a9.49 9.49 0 0 0 3.12 5.18l.47.46Zm230.84-3.27-.09.16c-.079.152-.149.31-.21.47-.12.25-.12.33-.11.35l.23.3c.26-.33.45-.63.42-.82v-.2l.05-.07-.29-.19Zm-3.09.34a7.472 7.472 0 0 0-.6.63c.19-.23.39-.45.58-.63h.02Zm1.71-1c.032.319-.035.64-.19.92l-.15.32 1.29-1.8-.2-.54c-.11.18-.24.36-.37.54-.13.18-.29.38-.4.56h.02Zm1.61.23-.12.23.26-.26.33-.27a2.21 2.21 0 0 0 .9-1.43l.2-.77a3.223 3.223 0 0 0-.17.39 1.695 1.695 0 0 1-.24.51l-1.16 1.6Zm-2.7-.25v.1l.07.28a.35.35 0 0 0 0-.17l-.07-.21Zm.88-1.44-.22.31c.072-.1.139-.203.2-.31h.02Zm2.04-6.46a8.367 8.367 0 0 1 0 4.07l-.42 2.66.51-.71c.044-.08.08-.164.11-.25.055-.173.125-.34.21-.5.034-.179.077-.356.13-.53 0-.12.07-.24.08-.32v-.2c.216-.65.367-1.32.45-2a11.363 11.363 0 0 1-.2-1.23 10.847 10.847 0 0 0-.45-2.22 6.795 6.795 0 0 0-.53-1.74l-.4.56c.039.149.086.296.14.44a5.17 5.17 0 0 1 .37 1.97Zm-1.22 4a4.536 4.536 0 0 0-.23.63c-.08.25-.18.59-.29.84l-.11.16a.415.415 0 0 0-.13.24v.45c.165-.196.257-.444.26-.7v-.14l.05-.13c0-.09.06-.17.09-.27l.36-1.08Zm2.78.71c0 .07 0 .15-.07.24s-.06.19-.08.28l.08-.29c.02-.04.05-.12.07-.2v-.03Zm-2.7-.85.06.18v-.17a.215.215 0 0 0 0-.08l-.06.07Zm3.18-1.77a8.312 8.312 0 0 1-.33 1.91c.2-.61.328-1.24.38-1.88l-.05-.03Zm-.07-.31c0 .07 0 .13.05.19.03-.03.02-.09 0-.16l-.05-.03Zm-236.9-.19.18.42c.004-.198.024-.395.06-.59l-.24.17Zm-.03-.08.46-1.38c0-.09.07-.19.11-.29-.15.39-.27.74-.37 1l-.2.67Zm236.79-1v.33c0 .11 0 .4.08.58 0-.18-.05-.37-.08-.57-.03-.2.01-.25 0-.36v.02Zm-2.86-.43a.583.583 0 0 1 .05.12v-.21.09h-.05Zm-.42-2.19c0 .12.08.26.12.4.131.368.235.746.31 1.13a6.648 6.648 0 0 0-.3-1.1l-.13-.43Zm-233.06.71.48.19-.14.52c.06-.14.12-.29.19-.43a.29.29 0 0 0-.17-.17l-.36-.11Zm1.5-5.38a12.63 12.63 0 0 0-2.73 5.35 12.83 12.83 0 0 1 2.73-5.35Zm233.56 2.86c.42.744.705 1.556.84 2.4a6.987 6.987 0 0 0-.84-2.41v.01ZM4.929 36.26c-.08.19-.17.41-.23.59v-.09c0-.07.06-.17.1-.28l.13-.22Zm0-.08h.47-.3a.23.23 0 0 0-.12 0h-.05Zm.92-.79a1 1 0 0 0-.14.31l-.13.29.27-.6Zm-.11.54h.12a2.25 2.25 0 0 0 1-.41c.06-.1.11-.18.15-.26l-.06.12-.55-.26-.66.81Zm230.48-2.26c.19.42.38.84.56 1.19-.18-.37-.37-.78-.56-1.19Zm-.1-2.6.51 1.07c.11.21.23.49.36.8.13.31.59 1.32.88 1.83l.5-.18c-.1-.12-.22-.24-.33-.35a1.046 1.046 0 0 1-.16-.15l-.33-.35.26-.26c0-.06-.05-.17-.09-.27a2.68 2.68 0 0 1-.57-1.24l-1.03-.9ZM7.099 34.23l.06.32c.01-.197.058-.39.14-.57l-.2.25Zm231.84-.52c.15.16.29.33.43.51a5.124 5.124 0 0 0-.42-.51h-.01Zm-.15-.2v-.11.11ZM8.409 32.32v.18l-.22.14a.94.94 0 0 0-.29.38.8.8 0 0 1 .49-.44h.13l-.11-.26Zm229.62-.86.08.1v.16c.005.131.036.26.09.38a1.22 1.22 0 0 1-.1-.54l-.07-.1Zm-229.43.37a.36.36 0 0 1 0 .09.59.59 0 0 0 .01-.09H8.6Zm225.61-.7.38.54-.35-.49-.03-.05Zm-225.47.3.11-.09.24-.2c.317-.282.65-.542 1-.78l.28-.19h.08a.2.2 0 0 0-.08-.08l-.71-.38-.41.3a.87.87 0 0 0-.09.4l.1.25-.52.77Zm228.18-1.52.06.08.4.57v.06a3.9 3.9 0 0 0-.45-.71h-.01Zm-3 .48h.15l-.14-.13-.01.13Zm1.4-1.41.43.41-.21-.59-.22.18Zm-4.23-2.78c.44.35.86.74 1.27 1.12l.15.17c.426.609.95 1.143 1.55 1.58l.06.05c-.23-.3-.41-.57-.57-.81a5.148 5.148 0 0 0-1.62-1.7c-.24-.1-.48-.22-.71-.34l-.13-.07Zm-218.92 2.06a.87.87 0 0 0-.07.1l.07-.1Zm218.52-1.11c.33.27.65.57 1 .85l.07.08-.05-.05c-.41-.31-.73-.61-1.06-.88h.04Zm-218 .34-.33.46a2.85 2.85 0 0 1 .42-.47l.09-.08h.12a.5.5 0 0 0 .31-.23l.06-.12-.52.36-.15.08Zm216.82-1.11h.06l.16.08-.17-.09-.05.01Zm-211.28-2.36v.06l-.16.06a17.295 17.295 0 0 0-3.66 2.16 14.677 14.677 0 0 1 4-2.25l-.18-.03Zm214 1.63.11.05h.11l.3.22c-.11-.08-.22-.17-.35-.25h-.06l-.11-.02Zm-3-.82.73.61v-.05c-.21-.16-.53-.4-.75-.56h.02Zm2.26.46.15.07.12.06h-.07l-.2-.13Zm-.53-.24h.12l-.12-.08v.08Zm-1.87-1.59c.186.16.379.31.58.45.33.24.65.48.89.68-.12-.11-.26-.21-.39-.31l-1.08-.82Zm-214.23.65-.15.05h-.12.07l.2-.05Zm5.33-1.69-1.51 1.16.39-.24.76-.45a4.997 4.997 0 0 0 1.13-.74v-.24a4.59 4.59 0 0 0-.51.3l-.26.21Zm205.98-.52.23.14c.515.286 1 .62 1.45 1v-.06h-.06l-.12-.1c-.404-.31-.828-.595-1.27-.85l-.23-.13Zm-6.61-1.76 3.73 2.23.37-.27c-1.2-.74-2.44-1.43-3.71-2.06l-.17.23-.22-.13Zm4.73.52 1 .61.14.12c.155.16.334.295.53.4v-.12c-.6-.36-1.17-.7-1.69-1l.02-.01Zm-201.43.59c-.52.12-1.025.295-1.51.52.486-.22.992-.395 1.51-.52Zm.27-.1v.06H23h.22l-.09-.06Zm.32-1.95c-1.032.425-2.012.97-2.92 1.62a14.83 14.83 0 0 1 2.79-1.56l.13-.06Zm2.6.34c-.42.252-.858.476-1.31.67.414-.183.818-.386 1.21-.61l.15-.06h-.05Zm2.39-1.04v.26l.25-.09-.07-.2.38-.13-.56.16Zm191-.51.44.18c.41.17.79.35 1.15.53l-1.55-.79-.12.25.08-.17Zm-189.43-.32-.3.23a1.76 1.76 0 0 1-.01.01l.31-.24Zm184.64.09.79.37.08-.13-.42-.18a.931.931 0 0 0-.31-.07l-.14.01Zm-187.09 0h-.07l-.36.16.43-.16Zm187.78-1a9.895 9.895 0 0 1 1.89.84l.56.3.41-.66-.74-.38.56.13a9.868 9.868 0 0 0-2.15-.84 9.494 9.494 0 0 1-2.16-.83h-.2l.26.07c.38.19.7.34 1 .45l.49.19-.17.38.3.16-.05.19Zm-184.83.78.22.28h.31a1.4 1.4 0 0 0 .47-.26l.09-.1.89-.31h-.19c-.335.034-.67.087-1 .16l-.37.2h-.07a.77.77 0 0 0-.35.08v-.05Zm-2.35-.17h.2a1.31 1.31 0 0 0 .5-.17 1.26 1.26 0 0 1-.69.17h-.01Zm179.34-2.32c.72.28 1.47.55 2.25.83 1.11.41 2.24.82 3.37 1.27-1.13-.45-2.26-.86-3.36-1.26-.79-.29-1.54-.56-2.26-.84Zm-173.54 1.79c-.093.052-.19.1-.29.14.096-.047.187-.104.27-.17l.02.03Zm-4.82.06v.07l.34-.19-.34.12Zm5-.33v.1l.41-.14a6.503 6.503 0 0 0 1.57-.41v-.11l.54-.22 1-.23-2.15.51-.78.43-.59.07Zm-1.86-.69c-.46.16-1 .32-1.45.47.49-.15 1-.31 1.45-.47Zm180.48-.48h.31-.31Zm.64-.05h-.06l-.13.09h.06l.15-.08-.02-.01Zm-180.11-.29-.07.07-.06.27a.22.22 0 0 0 .08-.09l.05-.25Zm4.79-.85.34.93c.51-.24.93-.49.94-.67.01-.18 0-.11-.27-.24l-.2-.09-.13-.47c-1.243.16-2.475.397-3.69.71-.577.166-1.141.373-1.69.62l.15-.07c.28-.13.8-.31 1.54-.55.58-.14 1.23-.27 1.83-.4l.6-.11v.5l.58-.16Zm20.21.06.18.47-.08-.49c1.2-.19 2.84-.56 3.5-.71h-.38l4.08-1c.083-.064.16-.134.23-.21l.11-.12.67-.16a25.3 25.3 0 0 0 3-.8l2.18-.75h.38c.74-.09 1.55-.18 2.67-.38 1.768-.2 3.515-.555 5.22-1.06.83-.23 1.61-.44 2.35-.59l.33-.06.18.27h.11v-.07l.85-.31.08.21c.153-.033.3-.083.44-.15l.11-.07h.13c.177.01.354.01.53 0l.47-1 .12-.12h.07l-.13.06h-.27l-.06.13-.22.06c-.094.023-.185.06-.27.11l-.13.06c-.54.16-1.42.33-2.06.46-.64.13-1.38.27-2 .42l-.26.07-.2-.18a4 4 0 0 0-.66.05 7 7 0 0 0-.75.24l-.18.08-.46-.16-1.44 1h-.12a6.912 6.912 0 0 1-.8.06h-.23l-.15-.18a5.47 5.47 0 0 0-1.44.18l-.2.12a4.64 4.64 0 0 1-1.57.4c-.895.121-1.78.309-2.65.56v.12l-.64.13-.65.1c-.36.155-.74.26-1.13.31-.414.047-.819.158-1.2.33l-1.17.46h-.5l1.05.18-2.65.52a8.61 8.61 0 0 0-3.19 1l-.47.43h-.49l-.23.05h-.39v-.11l-.49.17a7.01 7.01 0 0 0 .87-.13Zm147.79.25.51.18-.57-.24-.12-.05-.07-.1a7.446 7.446 0 0 0-1.51-.87l.54.23.21.11.05.23c0 .09.3.32 1 .54l-.04-.03Zm2.7-.49c.3.11.63.2 1 .29a8.437 8.437 0 0 1-1.92-.65h-.19l-.12-.05c.28.12.57.26.85.41h.38Zm-2.74-1.17.24.17c.149.093.306.17.47.23v-.07l-.34-.15-.37-.18Zm-4.86.12 1.65.11-2.3-.54-.42-.09.4.27c.228.14.473.248.73.32l-.06-.07Zm-1.69-.52.37.11.05-.15h-.05l-.16.07-.21-.03Zm2.71-.99 1.59.41.06.05.07-.21a1.458 1.458 0 0 0-.74-.08h-.24a7.225 7.225 0 0 1-.87-.25l.13.08Zm-8.08-.88c1.053.259 2.078.62 3.06 1.08v-.18l-.53-.13c-.832-.3-1.68-.558-2.54-.77h.01Zm7.27.47c.133.097.278.178.43.24a2.074 2.074 0 0 1-.44-.24h.01Zm-1.09-.39.86.2a4.257 4.257 0 0 0-1.82-.54l-.58-.1 1.25.54.29-.1Zm-2.52-.24.21.06c.31.09.63.19.92.26l-.61-.43-.07.23-.45-.12Zm-4.41-.07.5.12h-.01l-.45-.14h-.2l-.83-.23 1 .29-.01-.04Zm3.2-.26.14.06h.05c.169.027.336.064.5.11l-.69-.17Zm-1.56-.77h.85l-.72-.21c-.23-.08-.46-.14-.7-.21h-.34l-.53-.09c-.66-.12-1.37-.25-2.12-.43l3.93.94h-.37Zm-9.61-1.09h.18c1.15.23 2.15.47 3.09.73l-.95-.26 1.14-.64h.23a1.543 1.543 0 0 0-.35-.07l-.25.18h-.43c-.501-.06-.991-.2-1.45-.41a6.81 6.81 0 0 0-2-.52l-.43-.08v-.23c-.7-.09-1.3-.19-1.85-.28.43.07.89.15 1.41.22h.21l.13.18 1 1.1h-.25l.34.18.23-.1Zm5 .13h.37l.17-.09-.46-.12-.08.21Zm-14.29-1.6 1.07.17.7.11 3.5.81c.37.08.67.17 1 .25l.67.18-.68-.18-.7-.19v-.15c-.52-.12-1-.24-1.49-.37s-.87-.22-1.3-.31l.15-.88-.13.84-1.48-.22.35-.62.16-.3.58.05-1.19-.15c-.37-.05-.72-.09-1-.1h-.14l-.24-.17a1.3 1.3 0 0 0-.42 0v.28l.07.33-1.3-.2v-.51a9.227 9.227 0 0 1-2.06-.48 8.25 8.25 0 0 0-2.24-.44v.58l.3.15-.26.51-.27-.06a2 2 0 0 1 .44.13h.08l.15-.3h.34c.616.063 1.225.18 1.82.35l.49.12a9 9 0 0 1 2.32.16h.85l-.14.61Zm-88.59.95a8.078 8.078 0 0 0-1 .19l-.43.1h-.14l.56-.13a8.24 8.24 0 0 1 1-.19l.01.03Zm.85-.38.05.08c.25-.09.55-.17.79-.23l.45-.1.3-.3h.18c.51-.06 1-.14 1.41-.21a12 12 0 0 1 2.77-.25h.38v.11l2-.41a4.712 4.712 0 0 1 1-.24 8.452 8.452 0 0 0 1.6-.42l.43-.12h.13a13.42 13.42 0 0 0 1.561-.05v-.3h1.919l-.52-.36h1.64c.169-.002.336.032.49.1a1.3 1.3 0 0 0 .88 0h.21l.17.12.79-.17h1.13c.59 0 1.25 0 1.91-.08l1.47-.08v-.12l.41-.07a30.4 30.4 0 0 1 4.91-.37c.368.044.74.06 1.11.05v-.06h.5a40.538 40.538 0 0 0 6-.36l-.11-.43 1.34-.23.08.49c.01.08.01.16 0 .24h.18c1.33 0 4 0 5.42-.18l.86-.1 1.36.06c2.36.11 4.23.2 6.1.21h.28l.31-.11h.1c.668.018 1.335-.002 2-.06.39 0 .88-.06 1.21-.06h.51v.22l1.78.12-.15-.52a5.844 5.844 0 0 1-.64.06c-.82-.09-1.89-.13-3-.18-1.11-.05-2.12-.08-3-.16a27.94 27.94 0 0 0-3.55 0h-3.63c-.9 0-1.83.06-2.77 0h-.26l-.14-.18a17.229 17.229 0 0 0-2.92 0h-.28c-.315-.014-.63.01-.94.07-.166.05-.337.083-.51.1h-.2a3.11 3.11 0 0 0-.8 0 4.102 4.102 0 0 1-1-.08 1.93 1.93 0 0 0-.65.14c-.394.126-.806.19-1.22.19h-.77v-.18a8.457 8.457 0 0 1-2 .32h-.63l.36.12-2.69.09h-1.42c-.88 0-1.69 0-2.47.09l-2.4.28v.23l-1.13.07a6.13 6.13 0 0 1-2.4 0h-.06c-.72.12-1.79.27-2.849.42a24.79 24.79 0 0 0-3.4.55l-.17.05c-.95.07-1.91.22-2.76.35-.66.127-1.329.2-2 .22h-.24l-.06-.08c-.4.06-.91.17-1.45.29a9.37 9.37 0 0 1-2.85.38c-.231.07-.456.16-.67.27l-.1.18 1.9-.24-1.57.82Zm-1.2-.59c-.34 0-.64.08-.89.13l.87-.13h.02ZM179 6.07l.86.16-.12-.13a2.333 2.333 0 0 0-.75-.24l.27.18h-.25l-.01.03Zm-4.47-.4h-.19a.225.225 0 0 0 .09.1l.1-.1Zm-9.19-.64.61.13c.62.14 1.41.25 2.11.35l1.26.18c-.34-.06-.76-.12-1.26-.18h-.25l.08-1h-1l-.15-.14s-.05-.06-.19-.1a22.71 22.71 0 0 1-4.77-.44l-1.27-.2.31.05-.12 1 1.3.1h.61l.14.17c.302.09.615.134.93.13v-.21h1l.71.33-.05-.17Zm-7-.65h.18l1.71.19-1.68-.18-.21-.01Zm9.68.1a9.527 9.527 0 0 1 1.74.09 9.464 9.464 0 0 0-1.77-.13l.03.04Zm-15.7-.2 3 .28h.07l-1.24-.57 2.93.29.78.08-1.57-1.1.52.36-2.07-.29a4.2 4.2 0 0 0-1.93 0l-.15.06h-.16l-.18.89Zm-5.7-.61 3.22.29h-.33v-1h-.7v.17h-.51a16.334 16.334 0 0 1-1.68-.11v.65Zm3.47-.72a10 10 0 0 1-.07 0h.07Z"/><path d="M21.7 60.76c.24 0 .24.17.24.17l-.24-.17Z"/><path d="m22.438 61.88-2.34-1.62h1.6a.69.69 0 0 1 .74.67v.95Zm-1-.95a.32.32 0 0 0 .26.33v-.33h-.26Z"/><path d="m22.44 61.89-2.33-1.63h1.59a.69.69 0 0 1 .74.67v.96Zm-1-1a.32.32 0 0 0 .26.33v-.33h-.26Z"/><path d="m22.94 62.84-4.42-3.08h3.18a1.191 1.191 0 0 1 1.24 1.17v1.91Zm-1-1.91c0-.06 0-.16-.22-.17l.22.17ZM85.619 73.95v.16l-.24-.16h.24Z"/><path d="m86.12 75.07-2.33-1.62h2.33v1.62Z"/><path d="m86.12 75.07-2.33-1.62h2.33v1.62Z"/><path d="m86.62 76.03-4.42-3.08h4.42v3.08Zm-1.241-2.08.24.16v-.16h-.24ZM105.97 5.02s-.24 0-.24.17c0 0 0-.17.24-.17Z"/><path d="M105.97 5.19h-.74a.619.619 0 0 1 .22-.48.76.76 0 0 1 .52-.19v.67Z"/><path d="M105.97 5.19h-.74a.619.619 0 0 1 .22-.48.76.76 0 0 1 .52-.19v.67Z"/><path d="M106.47 5.67h-1.74v-.5a1.148 1.148 0 0 1 .38-.85 1.25 1.25 0 0 1 .86-.32h.5v1.67ZM96.159 6.19l-1.44.33c.474-.136.954-.246 1.44-.33Z"/><path d="m94.86 7.01-.22-1 .69-.17c.276-.09.562-.147.85-.17h4.361l-5.68 1.34Z"/><path d="m94.86 7.01-.22-1 .7-.18c.276-.09.562-.147.85-.17h4.371l-5.7 1.35Z"/><path d="m94.458 7.61-.45-2 .48-.11.69-.17a3.87 3.87 0 0 1 1-.19h8.679l-10.4 2.47Zm.75-1.21 1-.22a3.56 3.56 0 0 0-.73.15l-.27.07ZM206.281 14.53s.24 0 .24.17c.48.17.24.17-.24-.17Z"/><path d="M206.798 15.32a1.001 1.001 0 0 1-.43-.14l-.34-.11v-.1l-1.31-.91h1.59a.762.762 0 0 1 .6.27.548.548 0 0 1 .4.46v.32l-.27.16a.49.49 0 0 1-.24.05Z"/><path d="M206.798 15.32a1.001 1.001 0 0 1-.43-.14l-.34-.11v-.1l-1.31-.92h1.59a.762.762 0 0 1 .6.27c.21.09.38.2.4.46v.32l-.27.16a.488.488 0 0 1-.24.06Z"/><path d="M206.799 15.82a1.452 1.452 0 0 1-.67-.2l-.61-.21v-.19l-2.43-1.69h3.19a1.256 1.256 0 0 1 .9.36.992.992 0 0 1 .6.82l.06.64-.55.32a.997.997 0 0 1-.49.15Zm-.3-1.13c.084.045.171.081.26.11l-.09-.05-.12-.05-.08-.09a.227.227 0 0 0-.21-.09l.24.17ZM172.769 6.36c.47.16.71.16 1.19.33-.72-.17-1.19-.17-1.19-.33Z"/><path d="M173.857 7.18c-.23-.06-.43-.09-.6-.12-.46-.08-1-.17-1-.7v-.69l.66.23c.18.065.364.118.55.16.221.046.438.106.65.18l-.26.94Z"/><path d="M173.857 7.18c-.23-.06-.43-.09-.6-.12-.46-.08-1-.17-1-.7v-.69l.66.23c.18.065.364.118.55.16.221.046.438.106.65.18l-.26.94Z"/><path d="m174.197 7.77-.46-.11-.58-.11c-.45-.08-1.4-.24-1.4-1.19V4.95l1.33.46c.157.055.318.098.48.13.24.06.45.11.72.2l.45.16-.54 1.87Zm-1.44-1.41c.06.12.42.18.57.21h.17-.13c-.2-.09-.37-.13-.61-.21Z"/><path d="M175.398 6.86c-.72 0-1.2-.17-1.68-.17a5.647 5.647 0 0 1 1.68.17Z"/><path d="M178.359 7.36h-3a6.463 6.463 0 0 1-1.09-.11 4.07 4.07 0 0 0-.59-.06v-1c.62-.029 1.24.035 1.84.19l2.84.98Z"/><path d="M178.359 7.36h-3a6.463 6.463 0 0 1-1.09-.11 4.07 4.07 0 0 0-.59-.06v-1c.62-.029 1.24.035 1.84.19l2.84.98Z"/><path d="M181.308 7.86h-5.91a6.693 6.693 0 0 1-1.15-.11 4.485 4.485 0 0 0-.53-.06h-.5V5.67h.5a6.549 6.549 0 0 1 2 .22l5.59 1.97Zm-7.09-1.13h.12c.35.068.704.104 1.06.11a4.303 4.303 0 0 0-1.18-.17v.06ZM57.37 14.37h-.48v1h.48v-1Z"/><path d="M57.37 14.37h-.48v1h.48v-1Z"/><path d="M57.87 13.87h-1.48v2h1.48v-2Z"/><path d="m56.168 15.03.72-.16c-.24 0-.48.16-.72.16Z"/><path d="M56.18 15.53h-4.32l4.57-1.06c.159-.062.328-.096.5-.1h4.36l-4.58 1.06a1.37 1.37 0 0 1-.53.1Z"/><path d="M56.17 15.53h-4.31l4.57-1.06c.159-.062.328-.096.5-.1h4.36l-4.58 1.06a1.38 1.38 0 0 1-.54.1Z"/><path d="M56.181 16.03h-8.72l8.82-2.05a1.88 1.88 0 0 1 .61-.11h8.72l-8.82 2.05a1.75 1.75 0 0 1-.61.11Zm0-1c.113-.006.224-.03.33-.07l.39-.09a.999.999 0 0 0-.33.07l-.39.09ZM70.058 11.53c-.72.17-1.67.67-2.63.83h-.24c.933-.35 1.893-.627 2.87-.83Z"/><path d="M67.19 12.86h-4.33l4.25-1c.25-.06.59-.19 1-.32a7.005 7.005 0 0 1 2-.53h4.36l-4.24 1c-.34.084-.675.19-1 .32-.555.22-1.127.395-1.71.52l-.33.01Z"/><path d="M67.19 12.86h-4.33l4.25-1c.25-.06.59-.19 1-.32a7.005 7.005 0 0 1 2-.53h4.36l-4.24 1c-.34.084-.675.19-1 .32-.555.22-1.127.395-1.71.52l-.33.01Z"/><path d="M67.19 13.36h-8.71l8.48-2c.289-.078.572-.171.85-.28a7.54 7.54 0 0 1 2.25-.58h8.72l-8.49 2c-.24.06-.56.18-.89.3a9.53 9.53 0 0 1-1.8.55l-.41.01Zm2.87-1.83a7.269 7.269 0 0 0-1.85.5c-.325.133-.659.243-1 .33h.31a9.454 9.454 0 0 0 1.54-.49 8.68 8.68 0 0 1 1-.34ZM81.79 7.67l-2.39.5c.48-.16 1-.33-.24-.16 2.87-.82-.72.35 2.63-.34Z"/><path d="M79.5 8.67v-.19h-.22l-.21-1c1.25-.37 1.53-.45 1.73-.18.2 0 .5-.08.94-.17l.2 1-2.44.54Z"/><path d="M79.5 8.67v-.19h-.22l-.21-1c1.25-.37 1.53-.45 1.73-.18.2 0 .5-.08.94-.17l.2 1-2.44.54Z"/><path d="m79.14 9.27-.06-.22h-.24l-.41-1.88.45-.13c1.11-.33 1.66-.48 2-.23l.68-.13.49-.1.39 2-3.3.69Zm.68-1.33v.16l1.44-.31-.48.08h-.3l-.14-.2a5.41 5.41 0 0 0-.77.19v.07l.25.01ZM89.21 6.19c-1.43.17 0-.17 0-.17.96-.16 1.2-.16 0 .17Z"/><path d="M88.711 6.73c-.33 0-.57-.09-.63-.42-.09-.52.4-.63 1-.77.9-.16 1.3-.23 1.41.27.11.5-.28.62-1.16.86h-.08c-.18 0-.39.06-.54.06Z"/><path d="M88.711 6.73c-.33 0-.57-.09-.63-.42-.09-.52.4-.63 1-.78.9-.15 1.3-.22 1.41.28.11.5-.28.62-1.16.86h-.08c-.18 0-.39.06-.54.06Z"/><path d="M88.71 7.23a1 1 0 0 1-1.12-.84c-.17-1 .77-1.2 1.39-1.34.95-.17 1.81-.32 2 .65.19.97-.62 1.2-1.52 1.45h-.11a6.454 6.454 0 0 1-.64.08Zm-.15-1h.64c.299-.06.587-.157.86-.29a3.82 3.82 0 0 0-.87.13 2.81 2.81 0 0 0-.63.19v-.03ZM146.429 3.02v-.17c.96 0 0 0 0 .17Z"/><path d="m146.709 3.4.07-.05h-.35v-.33h-.5v-.67h.5c.51 0 .88 0 .92.47v.45l-.51.1a.516.516 0 0 0-.13.03Zm.13-.38v.31a.457.457 0 0 0 .12-.31h-.12Z"/><path d="m146.709 3.4.07-.05h-.35v-.33h-.5v-.67h.5c.51 0 .88 0 .92.47v.45l-.51.1a.516.516 0 0 0-.13.03Zm.13-.38v.31a.457.457 0 0 0 .12-.31h-.12Z"/><path d="m146.159 4.73.09-.88h-.32v-.33h-.5V1.85h1c.5 0 1.34 0 1.42.92v.12h.18l-.16.15v.63l-.93.17-.78.89ZM157.21 4.85h-1l-.48-.16 1.48.16Z"/><path d="m157.198 5.35-1.12-.02-4.75-1.66 5.93.69-.06.99Z"/><path d="m157.2 5.35-1.12-.02-4.76-1.66 5.94.69-.06.99Z"/><path d="m157.679 5.87-1.76-.07-9.06-3.13 10.92 1.26-.1 1.94Zm-1.51-1h.56l-1-.11.44.11ZM163.909 4.02l-.48-.17 1.92.34-1.44-.17Z"/><path d="m165.289 4.68-1.55-.19-.47-.16.25-.97 1.91.33-.14.99Z"/><path d="m165.289 4.68-1.55-.19-.47-.16.25-.97 1.91.33-.14.99Z"/><path d="m165.708 5.24-2.13-.28-.91-.31.48-1.86 2.85.49-.29 1.96ZM163.858 4l1 .13-1-.17V4ZM241.237 38.9l-.48-.17c0-.5.48-.66.48.17Z"/><path d="m241.739 39.6-1.48-.51v-.36a.821.821 0 0 1 .429-.817.816.816 0 0 1 .311-.093c.12 0 .74.05.74 1.08v.7Z"/><path d="m241.739 39.6-1.48-.51v-.36a.821.821 0 0 1 .429-.817.816.816 0 0 1 .311-.093c.12 0 .74.05.74 1.08v.7Z"/><path d="m242.238 40.31-2.48-.87v-.71a1.298 1.298 0 0 1 .735-1.284c.158-.075.33-.118.505-.126.46 0 1.24.33 1.24 1.58v1.41Zm-1.481-1.58.48.17c0-.36-.099-.58-.239-.58-.14 0-.241.18-.241.41ZM218.017 62.1a2.999 2.999 0 0 1-1.92.83 16.807 16.807 0 0 0 1.92-.83Z"/><path d="M216.098 63.43h-4.36l4.25-1a5.205 5.205 0 0 0 1.15-.48c.235-.106.475-.2.72-.28l1.5-.52-.93 1.29a3.442 3.442 0 0 1-2.33.99Z"/><path d="M216.098 63.43h-4.36l4.25-1a5.205 5.205 0 0 0 1.15-.48c.233-.11.473-.204.72-.28l1.49-.53-.92 1.29a3.44 3.44 0 0 1-2.33 1Z"/><path d="M216.099 63.93h-8.72l8.49-2a5.286 5.286 0 0 0 1-.44c.259-.14.526-.263.8-.37l3-1-1.81 2.55a3.935 3.935 0 0 1-2.76 1.26Zm0-1a3.002 3.002 0 0 0 1.91-.83c-.22.087-.433.187-.64.3-.4.228-.827.406-1.27.53ZM96.157 76.95l.95.17-1.67-.17h.72Z"/><path d="m97.07 77.61-1.68-.16.05-1 .8.01.96.16-.13.99Z"/><path d="m97.07 77.61-1.68-.16.05-1 .8.01.96.16-.13.99Z"/><path d="m97.49 78.16-2.63-.26.09-2h1.29l1.51.25-.26 2.01ZM95.91 77l.73.07-.73-.09V77Z"/></g></svg>