<svg xmlns="http://www.w3.org/2000/svg" height="22" fill="none" aria-hidden="true" viewBox="0 0 22 22"><path fill="currentColor" d="M3.314 17.864c-1.275-1.239-1.318-3.202-.096-4.389L7.56 9.256 5.88 7.625l-4.343 4.219c-2.113 2.053-2.039 5.44.167 7.583 2.205 2.143 5.692 2.215 7.806.162l4.343-4.22-1.68-1.63-4.343 4.218c-1.221 1.187-3.242 1.145-4.517-.093ZM11.97 1.71 7.626 5.93l1.68 1.63 4.343-4.218c1.222-1.187 3.242-1.145 4.517.093 1.275 1.239 1.318 3.202.096 4.388l-4.343 4.22 1.68 1.631 4.343-4.219c2.113-2.053 2.039-5.44-.167-7.583C17.57-.271 14.083-.343 11.97 1.71ZM6.145 15.114c.465.452 1.218.467 1.664.034l7.581-7.365c.446-.433.43-1.164-.035-1.617-.466-.452-1.219-.467-1.665-.034l-7.58 7.365c-.447.433-.43 1.165.035 1.617Z"/></svg>