<svg xmlns="http://www.w3.org/2000/svg" fill="none" aria-hidden="true" class="w-[110%] absolute text-aubergine dark:text-aubergine-25 -translate-x-1/2 pointer-events-none h-[50%] bottom-0 left-1/2 translate-y-[75%]" preserveAspectRatio="none" viewBox="0 0 108 12"><defs><mask id="a"><path stroke="#fff" stroke-width="2" d="M.5 1.5c35.167-.333 106-.3 106 2.5 0 3-90 2.5-90 3.5 0 .8 38.167 2.333 53.5 3" class="Annotation_maskPath__MlwWS" pathLength="100"/></mask></defs><g fill="currentColor" mask="url(#a)"><path d="M70 10.61c.13 0 .06-.14-.28-.14l-.25.15.53-.01ZM67.73 10.14c-.41.06-.88.17-.63.34.41-.13.5-.06.94-.22.34 0 .59.09.53.14.12 0 .53.08.72 0a3.54 3.54 0 0 0-1.59-.14c-.13-.05 0-.09.03-.12ZM32.67 7.52a.56.56 0 0 0-.23 0c.14.03.26.01.23 0ZM36.21 7.61H36a.49.49 0 0 0 .21 0ZM34.29 8.86l-.55-.08c-.04.06.26.06.55.08ZM43.42 9h.17a.59.59 0 0 0 .14-.06l-.31.06ZM50.44 9.15c-.16 0-.22.13-.28.19a.72.72 0 0 1 .35-.09s-.02-.06-.07-.1ZM38.41 8.86a.15.15 0 0 0-.06-.05s.02.04.06.05ZM.68 1.29h.11v-.08l-.11.08ZM42.69 7.63c-.19.02-.1.01 0 0ZM102.2 6c-.7 0 1.1-.3 0-.31.16.02-.87.31 0 .31ZM62.92 10.28h-.28c.093.01.187.01.28 0ZM57.62 7.17l-.16-.05s.04.03.16.05ZM63.38 6.83c.136.02.274.02.41 0h-.06a.93.93 0 0 1-.35 0ZM27.08 1.6a1.06 1.06 0 0 1-.28-.13c.09.1-.8.14.28.13ZM63.1 10.23a.26.26 0 0 1-.18.05h.2s.02-.04-.02-.05ZM70.18 1.83H70c.06.01.12.01.18 0ZM67.39 5.62c.176.048.358.074.54.08h.11l-.65-.08Z"/><path d="M20.51 1.85c.91 0 .43-.19.62-.29 1.09-.06.5.13.87.22.68-.05 1.2-.23 1.71-.22 0 0 .13 0 0 .08.71-.16 2.12 0 3-.21a.32.32 0 0 1 .11 0c-.14-.09-.16-.19-.13-.25.41 0 .75-.12.91 0a.68.68 0 0 0-.39.08l.43-.05c.38.17-.59.06-.58.19.81-.102 1.624-.155 2.44-.16.13.16-1.5.06-.64.21l-1-.06c.76.26-.6 0 .09.26 1.3 0 1.46-.09 2.75 0 .3-.1-.09-.14.2-.24 1.84-.17 1.45.42 2.81.19a2.19 2.19 0 0 1 1.45-.21l-.33.19c1.26 0 .72-.28 2-.15-.24.08-1 .07-.8.09.85.15.6-.11 1.26-.11l.13.17c1.34 0 2.82-.15 4.3-.18-.08.05-.33.11 0 .16 1.88-.08 4 0 5.8.14l.69-.14c.16 0 .3.07.13.1.7.06 0-.1.37-.15.37-.05.53.08.28.13a26.9 26.9 0 0 1 4.84-.08h-.25c1 .07 1.15-.29 2.09-.14h-.18c2.21.09 4.66 0 6.34.22.33-.2 2.19.13 2.34-.17.882.167 1.774.28 2.67.34.47 0 .71-.17 1.3-.19v.15l.8-.15.42.19h.55c-.22 0-.46-.07-.43-.12a6.29 6.29 0 0 1 2.11.23l2-.09A2.53 2.53 0 0 1 73 2c1.09-.13.2.17 1.19 0-.13 0 .08-.09.1-.12.815.11 1.638.15 2.46.12l-.16.1c1.5.07 3.17 0 4.87.11-.61-.08-.46-.25 0-.25l.2.17c.32-.09-.52-.08.14-.18.66-.1.42.2.06.24h.77s-.14.07-.19.13c.32-.09 1.32.21 1.78.06v.05l3.83.12c0-.14.57-.08 1-.16 1 .1 2.12.27 3.34.35.86 0 .26-.1.65-.16 0 .13 1.27.21.63.25 1.46.09 1.87.11 3.72.17-.2-.07-.42-.11-.3-.15.34 0 .76.12.7.18h-.09c2.09 0 4.74.82 6.41.75h.77c.1 0 0 .07 0 .07h-.07c-.07 0-.22 0-.23.08-.01.08 0 .16 0 .23s-.12.11-.49.25c-.619.202-1.25.366-1.89.49-1.12-.22-4.14.18-5.74 0l.1.09c-.41.1-.5 0-.81-.05 0 .07.45.07.2.12-3.49.2-7.21 0-10.8.06-1.31 0-.73.48-2.38.31l.46-.18c-2.64.27-5.4.13-8 .37a.77.77 0 0 1 .4-.1 5.36 5.36 0 0 0-2 .14c-.41 0-.1-.09-.35-.13-.55-.06-1.37.19-1.66.08 0 0 .15 0 .25-.06-.36.07-1.67 0-1.32.16-1 0-1.86.11-2.63 0-.5.17-1.67 0-1.82.19.06-.22-1.71-.14-2.32 0 .2-.08-.53-.06-.3-.16-.7 0-1.34.08-1.21.19-1.3-.24-2.59.28-3.33-.05-2.07.18-4 .31-5.87.41.06-.23 2.07-.08 2-.31-1.77.14-2.79.36-4.55.35-.46 0 .25-.11.41-.15-1.77.14-3.43.06-5 .23a1 1 0 0 1 .33-.07c-.31 0-.72 0-.68.08h.3c.5.13-1.23.34-1.28.42.52-.31-1.56 0-.73-.43-.21 0-.46.08-.41.15-.31 0-.41-.05-.1-.14-1.11.09-.71.19-1.72.21 0 0 .2-.07.3-.14a7 7 0 0 1-1.87.2c.05 0 0-.06.21-.07-1.47.05-2.5.32-4.11.27.47-.23-.54-.06-.63-.24l-.87.07.35.08c-.76 0-1.42.17-2.07.13l.56-.09-1.42.07.8.05c-.76.11.09.23-.92.21.21 0-.75 0-1.15-.09a5 5 0 0 1-1.32.11c-.14-.06.11-.21 0-.25-.37.17-1.77.09-2.24.27.16 0 .16-.14.11-.16l-.31.13c-.35 0-.4-.05-.34-.13-1.06 0 .34.23-.92.16a1.93 1.93 0 0 1 .26-.05c-1 0-1.94.08-2.86.1h-.72l.59.38c.219.146.45.273.69.38.13.15-.12.08-.37 0s-.49-.29-.34-.1a6.75 6.75 0 0 0 2.6.75l2.52.3h-.3c.25-.24 1.18.26 2 .21-.2 0-.27.12-.22.1 1.33.111 2.666.151 4 .12h-.21c.64.1 1.71.12 2.41.18.21-.06.62 0 .38-.14 2.15.48 4.14-.06 6.05.31-.23 0-.55 0-.36.05h1.64c-.13-.12-.22-.07-.56-.17a4.39 4.39 0 0 1 1.08-.1c-.74.06 0 .19.32.26 0 0 .06-.07 0-.11.85.22.15-.23 1.31-.07l-.06.06c.446-.08.897-.134 1.35-.16.2.13-.46 0-.49.16a8.22 8.22 0 0 1 1.9-.08c-.28 0-.68 0-1 .05.394.11.8.167 1.21.17l1.12.1h-.29c.84-.33 1.69 0 2.81-.24-1.09.2-.18.12-.26.27.28.05.71.11.59.15.53-.11.88.11 1.63-.05 0 .05.56 0 .44.14.68 0-.16-.09-.1-.15 1.06-.14 2.48.26 4 .07 1.32-.05 1.56-.21 2.78-.25.41.09-.34.17-.34.17a8.997 8.997 0 0 0 1.79.07c-.13 0 0 .07.18.14.5 0 .35-.17 1-.07a2 2 0 0 1-.51.18l1.8-.1c.15.09-.38.11-.6.16a9.585 9.585 0 0 0 2-.11l-.44-.08c.25 0 .13.13-.06.14-.59.07-.84-.09-.87-.14h.43c-.43-.31-1.75 0-2.62-.09l.37-.19-.9.13c-.19-.06-.32-.18.12-.19-.63-.13-.56.05-1.1-.09-.06 0 0 0 0 0h-.61c.12 0-.1-.15.28-.11-1.1-.16-1.79.1-2.2-.07h.1c-1.53 0-.16.15-1.31.29l-.76-.39-.15.15c-.16 0-.47 0-.41-.09-.59.09.09.07-.25.16-.75-.16-2.09 0-2.26-.23-.27.11.72.1-.09.16-.22-.26-.94 0-1.63-.11.22-.13.87 0 .18-.18-.42.22-1.35-.07-1.93 0 0 .18-1.28.05-2.26.09.06-.06-1.85-.14-2.76-.22-.18.18-1.12.12-1.81.15 0-.11.15-.15.53-.19h-.65a2.54 2.54 0 0 1-.77.1L43 9a24.18 24.18 0 0 1-2.83 0c-.06.13.87.38-.3.43 0-.07-.08-.19.22-.21a2.28 2.28 0 0 1-.55 0l.47-.11c-.51-.06-.27.09-.67.07 0-.1-.3-.08-.24-.16.17.021.34.021.51 0a4.48 4.48 0 0 1-1.18-.19c0 .06 0 .14-.34.14-.85 0-.29-.13-.78-.2-.21.06-.76 0-.78.12a.64.64 0 0 1-.39-.13c-.44.05-2.07-.07-1.58.11-1.46.08-3-.24-4.45-.3v-.05c-.87 0-1.91-.15-2.53-.12-.26 0-.58-.17-.47-.21A6.24 6.24 0 0 1 25.49 8c.66 0-.2-.12.68.06a15.631 15.631 0 0 0-1.88-.43c.33 0-.55-.33-.79-.5.126.12.264.226.41.32a2.14 2.14 0 0 1-.5-.26l-.2.6h.62l-.21.17c1.76.16 3.15-.42 4.49-.11.47-.13-.95-.06-.54-.21.64.04 1.277.114 1.91.22 1.1.06 1-.27 2.18-.24-.15-.05-.29-.21.57-.29.86-.08 1 .23.49.29h-.28c-.26 0-.6.06-.28.12l.1-.06c.4.05 1.51 0 1.25.12.61-.07.26-.11-.19-.13 1 .06 1.62 0 2.68 0-.17 0-.32-.1-.16-.1 1.57 0 .69-.13 1.75-.18.6.07-.21.22.85.12.65 0 .14.15-.11.2a12.59 12.59 0 0 1 2.37 0l-.51.06c.3 0 .55 0 .81-.05l-.3-.11c.3 0 .56 0 .55.06.31-.09-.24-.19.37-.31.4.05 1.22-.1 1.36.06-1.26 0 .15.15-.92.2.253-.02.507-.02.76 0h-.13c1.21.11.55-.19 1.8-.22-.15.09.3.16.5.14-.5 0-.25-.14.21-.22a7.16 7.16 0 0 0 1.29-.08h-.48a4.14 4.14 0 0 1 1.12-.13c0 .07-.5.06-.3.08.61-.17 1.4.13 2.26 0 .4.05 0 .17.4.2 1-.14 1 .1 2.06 0-.29-.12-.34-.09.37-.22l-1.67.13 1.07-.2c-.51 0-1.06.1-1.37.08.51-.11.46-.07.22-.17.69.16 1.36-.14 2.17 0v.3c1.2.1 2.13-.2 3.69-.17h-.5a8.7 8.7 0 0 1 1.46-.1c0 .1.28.13.49.19 0-.08 1.14 0 1.28-.23l.7.12c1.26 0 1.43-.32 2.64-.32-.36.12.19.17-.62.27.41 0 .77 0 .77-.07.24.06 1.12-.16 1.5-.07a1.3 1.3 0 0 1 .67-.16v.05s.71-.09.31-.18c1.25.27 3.48-.11 4.57.12.88 0 1.94-.11 2.74-.14h-.15c1.11.06.67-.31 1.93-.23.65.14-.66.1-.26.15.18.32 1.51-.08 2.36.09h-.2c.65.09 1.57-.16 2.63-.17a22.562 22.562 0 0 1 3.1-.34c-.32.13-.46.08-.27.2.46 0-.14-.2.77-.26.3.06 1 .11 1 .24h-.86a5.44 5.44 0 0 0 1.56 0l-.05.08c1.31-.06 1.32-.26 2.74-.28l-.15-.06c.77-.21.65.1 1.42-.07l.23.19c.51-.06 1.78-.23 2.7-.29-.743.16-1.494.28-2.25.36.67.008 1.34-.045 2-.16a3 3 0 0 1-.66.06 9.74 9.74 0 0 1 2.44-.29c-.17.38 2.62 0 3.36.31 1.78-.19 3.52 0 5.62-.11-.77-.27.62 0 .47-.35.239-.035.479-.055.72-.06a9.806 9.806 0 0 0 1.52-.11c.39 0-.45.2-.39.24 1.11-.27.49 0 1.27-.17-.1 0 0-.1.17-.2l.17-.1c.1-.051.196-.108.29-.17.17-.14.42-.27.6-.44a5.202 5.202 0 0 1-.64.4 2.383 2.383 0 0 1-.33.15l-.23.07.26-.16c.107-.057.211-.12.31-.19.17-.14.35-.23.46-.34l.33-.29.26-.28c.183-.203.344-.424.48-.66l.14-.24s.07-.1 0-.12h-.13c-.18-.06-.39-.12-.64-.18l.7.14a8.82 8.82 0 0 0-1-.31l-1.67-.18a7 7 0 0 0-1.79 0c-.13-.05-.3-.16 0-.14-1.81-.24-4.08-.15-5.48-.42l.14-.06a3.53 3.53 0 0 1-1 0s.14-.06 0-.08a6.999 6.999 0 0 1-1.36 0h.39a31.94 31.94 0 0 0-4.24 0c0-.22-1.38-.38-2.08-.45-2.07-.14-3.53 0-5.46 0-1.18-.28-4-.25-5.95-.43.29.05-.06.17-.4.18-.34.01-1.25.12-1.17-.08H76a5.72 5.72 0 0 0-2-.2l-.13.26c-1.88-.43-4.95 0-6-.32-.46.06-1 .05-1.48.11V.72c-1.27-.06-1.9-.08-3.46-.07l.32-.1c-.88 0-1.12.4-1.93.4l-.24-.22a37.36 37.36 0 0 0-4.61 0s.07-.09.32-.1c-.72 0-2.8-.17-2.54.13 0-.19-1.58 0-2.41 0l.13-.14a6 6 0 0 1-1.7.27c-.23 0-.21-.12.1-.08-.77-.08-.6.13-1.54.05l.35-.09a2.78 2.78 0 0 0-1.17.14 4.16 4.16 0 0 1-1.62-.17 2.12 2.12 0 0 1-1 .13c-.06 0 .11-.07.19-.09-1.33-.1-2 .16-2.89 0 0-.05-.08-.07-.15-.08h1.82c-.08 0-.85-.15-.17-.33a14 14 0 0 1-2.69.24h-.11.09a2.9 2.9 0 0 0-.52 0h-.69a6.22 6.22 0 0 0-1.41-.06c0 .14-.52.12 0 .23h1.58a2.9 2.9 0 0 1-1.16.05c-.22.09-.46.19-.59.23-.59-.2-1.71-.3-1.86-.42a22 22 0 0 0-3.88.32.89.89 0 0 1-.56-.12c.194-.01.388-.03.58-.06a10.63 10.63 0 0 0-2.36.22c-.93-.08.52-.17-.76-.14l.18-.06c-2.52-.28-4.09.49-6.88.13a1 1 0 0 1 .33.07c-3.18-.15-6.54.21-9.68 0a4.61 4.61 0 0 0-1.53.17l-.2-.14-.93.18c-1.31.15-2.28-.34-3.95-.07l.22.1c-.6 0-1.9.09-1.8 0a.65.65 0 0 1-.43.06v-.08l-1.47.16c-1.15 0 .17-.31-1.5-.3-.62 0-1.76.26-1.52.31.24.05.64 0 .66.12l-.57.05c-.1.23-.53.48.87.62l1-.16.32.11h-.82A2.2 2.2 0 0 0 3.2 1.8a1 1 0 0 0 .41.11l1-.24c.11.09-.43.19.21.23.45-.11-.43-.2.31-.28.46.1.33.19.87.09.08.06 0 .1-.25.13a10.23 10.23 0 0 0 1.53-.18c.48.12 1.63-.06 1.59.16a7.48 7.48 0 0 1 1.29-.2c-.8.28 1.67 0 1.46.28a24.9 24.9 0 0 1 3.23-.28.72.72 0 0 1-.27.05c.389.013.777.053 1.16.12.08-.19 1-.25 1.51-.37.74.18-.44.23-.21.41 0-.16 1.27-.17 1-.3.57.11.49 0 .78.21.1-.25.52 0 1-.2.81.11.21.23 1.1.14.39.07-.41.17-.41.17Zm23.03-.49h-.77c-.07-.05 0-.1.18-.09-.1.02.33.05.59.09Zm-3.77-1a.81.81 0 0 1 .41 0h-.49a.27.27 0 0 1 .08.02V.36Z"/><path d="M68.19 1.86v-.03l-.16.03h.16ZM44.36 9.69a.32.32 0 0 0 .13 0h-.13ZM48.61 9.81l.6.06-.6-.06ZM51.87 9.94a.14.14 0 0 0 .07-.06l-.07.06ZM46.24 6.32h.13c.3-.05.09-.03-.13 0ZM30.8 7l.5-.08c-.3.08-.49.08-.5.08ZM32 6.94a4.11 4.11 0 0 0-.71 0c.236.015.474.015.71 0ZM66.73 10.43h-.37c.123.02.248.02.37 0ZM61.7 10.2h-.06s.05.03.06 0ZM60.38 10.17a9.69 9.69 0 0 0 1.22.12c-.16.03-.92-.19-1.22-.12ZM54.92 9.39l1.1.07c-.19-.06-.44-.14.06-.14-1.39-.2.28.13-1.16.07ZM51.51 9.24c.59 0 0-.08 0-.11-.35.04-.45.05 0 .11ZM26.91 8.15 27 8c-.47 0 0 .09-.09.15ZM24.09 7.07 23.64 7l-.21.13.66-.06ZM26.9 7.91l-.2.03.76-.07-.56.04ZM68.33 6.83l-.15-.15c-.3.03-.36.21.15.15ZM86.21 6.22a2.1 2.1 0 0 0 1 0c-.4.03-.8-.02-1 0ZM72.96.69l.36-.04-.68.03.32.01Z"/></g></svg>