<svg xmlns="http://www.w3.org/2000/svg" height="110" fill="none" aria-hidden="true" class="w-[110%] text-aubergine dark:text-aubergine-25 -translate-x-1/2 pointer-events-none translate-y-[-30%] rotate-[-15deg] scale-90 text-aubergine dark:text-aubergine-25 sm:scale-100 md:translate-y-[-5em] md:rotate-[-22deg] md:scale-x-[-1]" viewBox="0 0 39 111"><defs><mask id="a"><path stroke="#fff" stroke-width="7.5" d="M29.5 4.5C43 39 27 84 4 107l1.5-18.5L4 107l24-12" class="KickerArrow_maskPath__UXMxJ" pathLength="100"/></mask></defs><g fill="currentColor" mask="url(#a)"><path d="M30.032 4.143c0-.24-.4-.1-.48-.12.15.39.61.12.48.12ZM31.553 7.963l-.17-.05.5.53-.33-.48ZM32.093 11.653c.65-.45-.31-1.32-.16-2l.15-.13-.61-.22c.2.78.69 1.76.62 2.35ZM30.843 13.843c.26-.16.3.39 0-.47a.348.348 0 0 1-.06.09c.03.124.05.252.06.38Z"/><path d="M30.803 13.463c-.07-.38-.19.29 0 0ZM31.212 15.223l-.31-.47c-.15.13-.13.58-.27.43.21.5.36.37.58.04ZM31.793 15.633l-.14-.25c-.06.06-.07.13.14.25ZM31.363 14.863l.29.52c.11-.09.34-.13-.11-.24.22 0 0-.07-.18-.28ZM31.422 14.523c.12-.3.16-.69.48-.21-.24-.96-.74-.75-.48.21ZM32.843 11.743l.16-.42-.29-.3c.14.12-.08.77.13.72ZM31.313 18.523c.15 0 .38-.23.56-.3l-.23-.35c-.07.27-.11.59-.33.65ZM31.873 18.223l.33.5c-.04-.48-.16-.58-.33-.5ZM32.593 15.613l-.67-.84.7 1.01-.03-.17ZM31.553 20.553l-.38-.27.59.49-.21-.22ZM31.743 21.913c-.31-.2-.46.35-.66.13a2.6 2.6 0 0 0 .6.94 1.27 1.27 0 0 1 .06-1.07ZM32.042 23.443a2.316 2.316 0 0 0-.36-.46c.091.174.213.33.36.46ZM32.253 19.653a.72.72 0 0 0-.37.48l.4-.26-.03-.22Z"/><path d="M32.253 19.603v.05s.05-.04 0-.05ZM32.422 17.193c.29.3.65.95.9.23-.32-.2-.47.22-.9-.23ZM32.743 19.273v-.6c-.11 0-.26.16-.4 0l.4.6ZM32.913 19.533l-.17-.26v.22l.17.04ZM32.383 22.413c.169.245.266.532.28.83a3.54 3.54 0 0 0 .06-1c-.14-.1-.39-.18-.34.17ZM32.383 21.143v.05s.07-.05 0-.05ZM32.803 26.343l.07-.05-.07-.01v.06ZM32.792 22.143a.51.51 0 0 0-.2-.53c.066.194.11.396.13.6.06.02.1.02.07-.07ZM32.293 24.293c.081-.145.152-.295.21-.45-.13.13-.34.4-.21.45ZM32.303 21.323c-.14.05-.06.04 0 0ZM32.303 21.323c.08.114.178.215.29.3a2.092 2.092 0 0 0-.18-.4l-.11.1Z"/><path d="M35.572 27.243a.85.85 0 0 1-.38-1.33c-.31-.57-1.6-.14-2.32.38.18 0 .34 0 .59.59.21-.21.46-1.33.84-.84.22.78-.12.65-.32 1 .49-.34.74 1 1.45.81l-.26-.69c.11-.02.3.27.4.08ZM32.883 25.143l-.05-.24a2.2 2.2 0 0 1-.52.85c.21.39.36.47.49.5v-1.19l.08.08Z"/><path d="M32.763 23.863c.44.16.66.73 1.1.35-.07-.71-.38-.48-.6-.89.18 1.13-.25-.31-.45.52a2.403 2.403 0 0 1-.15-.6c-.037.204-.09.404-.16.6 0-.05.08-.07 0 0l.17.05c-.07.33-.11 0-.17-.05h-.07l.31 1.12c.062-.364.068-.735.02-1.1ZM34.333 17.893a.112.112 0 0 1-.09.05c.06.07.1.09.09-.05Z"/><path d="M34.163 18.413c-.07-.08-.25-.12-.24-.4.01-.28.2 0 .34-.07-.13-.14-.39-.53-.52 0l.07.07c-.08.48-.54 1.14-.61 1.07a2.81 2.81 0 0 0 .96-.67ZM33.623 21.143l.3.94.33-.52h-.22c.03-.42-.23-.33-.41-.42ZM32.593 26.453l-.46-.11.66.53-.2-.42ZM32.672 27.693l-.4-.05.24.33.16-.28ZM15.733 96.223c0 .1-.06.2-.1.3a.86.86 0 0 0 .1-.3ZM17.073 94.523l-.13-.16c.03.15.07.23.13.16ZM28.933 57.793c-.45.29-1.15.54-.7.63h.45a.93.93 0 0 1 .25-.63ZM23.833 78.473l.17-.06-.26-.43.09.49ZM25.343 79.503l-.49.38c.182-.1.347-.229.49-.38ZM4.013 108.143l-.76 1.21c.71-.58.55-.74.76-1.21ZM32.243 40.403c-.167.26-.285.548-.35.85.27-.4.7-.7.35-.85ZM12.623 92.713c0 .18 0 .29.07.35.04-.18.04-.31-.07-.35ZM31.782 42.263c.044-.055.084-.111.12-.17a2.613 2.613 0 0 1 0-.84.81.81 0 0 0-.12 1.01ZM11.503 98.403h.11s-.06-.04-.11 0ZM24.303 98.443c-.14.052-.284.092-.43.12a.861.861 0 0 0 .43-.12ZM34.163 31.433a.271.271 0 0 0 .21.11.32.32 0 0 1-.21-.11ZM34.163 45.233c.05-.04 0-.03 0 0ZM32.633 32.283a1.1 1.1 0 0 0-.14.33 2.09 2.09 0 0 0 .14-.33ZM32.422 32.323v-.22c-.02-.04-.07.04 0 .22ZM32.432 33.033c0-.142.02-.284.06-.42 0 0-.06.07-.07.06-.01-.01.01.18.01.36ZM6.753 94.333v.06c.14.29.11.16 0-.06ZM30.983 66.833c-.37-.57-.23-.77 0-1l-1.29-.12 1.29 1.12Z"/><path d="M11.652 100.913c.31-.13.64-.28 1-.45-.67 1.58-1.63 2.24-.54 1.91-.2-.75.6-1.61 1.4-2.46.2-.22.4-.43.58-.64a1.63 1.63 0 0 0 .24-.44.65.65 0 0 0-.15-.76l.52-.17c-.1.09 0 .16-.15.25 1.09-.27-.31-1.15.58-1.91.35-.23.66-.35.62 0l.29-.93c.18-.19.33 0 .15.2l.75-1.16a6.6 6.6 0 0 1 0-1.08c.36-.17 0 .23.2.25l.17-.81c.46-.05.39.67 0 1.07 1.51.22.08-.72 1.6-1.52l-.27.69c.9.06 1-.56 1.87-1-.33 0-1.94.68-1.75-.2a.94.94 0 0 0 .46-.87c.4.26.53-.17.8-.65l.52.38c.16-.6-.14-.73-.2-1.18.4-.52.9-.37 1.34-.29.64-.84-1.06.21-.51-.91.57-.665.891-1.506.91-2.38.49-.41.29.29.55.19l-.18-.72c.07-.11.19 0 .25.06 0-.49-.54-.34-.36-1-.54-.49 1.59-.79 1.29-1.94.25-.11.3.27.55.32a6.659 6.659 0 0 0-.09-2.29l.75-.57c-.71.35-.86-.6-1-1.41a4.676 4.676 0 0 0-.69.24l.13-1.12c.15-.07.3.12.47.39a1.574 1.574 0 0 0-.05-.25c.37-.25.62.09.83.49l-.52.19c.25.41.53.82.89.93a.88.88 0 0 1 0-.4c.07.11.14.19.21.19.07 0 0-.17-.08-.41l.75.08-.23-.18 1-1.12c-.22-1.23-.87-2.47-.51-4.06.33.57.76.4 1.32.66-.78.16-.23 1.27-.68 2 .23-.38.46-.17.51 0v-1.62c.46.23.48-.14.83-.43-1-.1-.2-1.29-.26-2 .32.09.59.35.24 1 1-.49-.7-1.43.19-1.94-.06.18-.14.25 0 .38-.12-.5.47-1.39.66-1.05l-.06.17c.54-1.09 1.3-3.44.55-3.9.35.182.685.392 1 .63l-2-3c.63.42 2.52.32 2.56 1.4a1.44 1.44 0 0 0 .39-1.19c-.16.16-1.15.11-1.13-.16 1-.42.58-.34 1.53-1-.25.23-1.22-.46-1-.88.13.12 1.08.33 1.13.53l-.68-1.45c.09.33.89.36 1.27.21-.25 0 .32-1 .31-1.31l-.4.4c.56-1.22-1.09-1.71-.7-2.93.18.22 1.27.77 1.58.17-.48-.47-2.29-2-2.48-3.2l.37-.13-.17-.92a16.414 16.414 0 0 1 2.6 3.64c.38-.41.41 0 .58-.76.37-.18.34.51.3.73.23-.55.42-1.1.62-1.65-.67-.08-.35-1.45-.91-1.51l.24 2a2.26 2.26 0 0 1-1.21-2.64c.34-.24 1.12.48 1.34.51-.18-.21-.19-1.23 0-1.3l.24.58c.39-.62-.65-1.27.15-1.94.1-.26 1-.66.63-.78a6.43 6.43 0 0 1-3.7-.45 9 9 0 0 1 1.4-1.53c.67-.35 1.29.92 1.87.63-.18-.05-.36-.34-.41-.46.2-.26.54.22.57-.43-.65-.21.27-1.27-.52-.39-.08-.64.24-.63.32-1.36-.47.16-1.39-.87-1.49-1.5a.75.75 0 0 0 .52-.1c.24-1.24.61-1.88.77-3.05.18-.09.44-.64.7-.36a1.18 1.18 0 0 1-.3-.73c.66-.64 0 .82.77.36-.39-.09-.45-1-.65-1.54-.62.1-.23 1.18 0 1.73-.84-.09-1.63-1.08-1.9-2.33-.12-1 .58-.37.48-.55.28-1.81-1.36-1.65-.65-3.11.57-.57 1.07 0 1.47-.08.16.81-.43 1.2-.44 1.74l.3-.65a1.24 1.24 0 0 1 .08 1.09 3.85 3.85 0 0 0 .42-1.9c.02-.876.148-1.746.38-2.59-.16-.26-.34-.7-.56-.5l.06.45c-.45.39-.57-.86-.79-.31a2.781 2.781 0 0 1-.49-2.11l.62-.15c-.18 0-.38.54-.2.78-.26-.35.87-1.27.06-1.67l-.43.58c-.3-.6-1-1.33-.76-2.06-.61.33.07.17-.64.69.88-.45 0 1.87.89 1.15-.83.53-.37.93-1.09 1.61.2 0 .39-.24.28.38.068.032.126.08.17.14a.7.7 0 0 1 .32-.3c.45.32.41 1.3.63 1.65-.11.36-.22-.17-.45 0l.33.52c-.45 0-.79.94-1 .06l-.06.77a1.87 1.87 0 0 0-.25 1.46c-.12.36.43 1 .1.62l.19 1.23h-.11c-.16 1.19.51 2.55-.45 3.83a2.789 2.789 0 0 1-.06 1.5l-.4.08c.08.54-.59 1.49-.22 1.76-1.11.4-.6 2.45-.95 3.31l.49.12a7.443 7.443 0 0 0-.05 2h.45c.22.73-.64 1.64-.85 2.67-.15-.11 0-.36.1-.52-1.28 1 .12 2.78-.92 3.69a.62.62 0 0 1-.18.67.22.22 0 0 0 0-.08 1 1 0 0 0 0 .12l-.34.31c.12-.066.228-.15.32-.25a3.77 3.77 0 0 0-.07.89h-.5v.08c-.27.25.14.31.54.25.02.173.067.342.14.5-.82 0 0 .9-.9 1 .33.33-.25 1.68.5 2.12-.11 0-.19 0-.14-.12a1.19 1.19 0 0 0-.31 1l-.63-.06.5 1c-.52.34-.79.46-1.07-.16.28 1.35-.07 1 .27 2.18l-.36-.18c-.11.35.2 1.07-.19 1.16-1 .49-1.51 3.69-2.94 5.33 1.23.08-.86.68-.06 1.1-.3 0-.55.2-.64-.19-.17 1.06-1 1.27-.61 2.23-.3 0-.28-.37-.47-.34 0 .1.08.4-.11.43-.19.03-.15-.23-.19-.43-.4 1 .33 1.43 1 1.84-.57.33-.63.6-.32 1.18-.32.06-.69.23-.5-.41-.18.33-1.34 1.88-.78 2.2-.2 0-.28.45-.25.57-.314.49-.595 1.001-.84 1.53l.2-.16c.53.65-.17.69-.4 1.32l-.06-.05c-1.2 1.07-.08.71-1.38 1.7l.46.17c.81.63-1.18.86-1.31 1.79l.41-.13c0 .6-1.91.39-2.26.71-.13 0 0-.21 0-.37-1.16.71.45.47.08 1.33-.38 0-.6-.65-1-.17-.4.08-.11 2.08-1.13 2.4.32 0 .64 0 .55.47-.32.59-1.86.81-1.56 1.78a.24.24 0 0 1-.23 0c-.13.54-.75 1.48-.61 2-.78-.36-1.14.38-1.42 1.05-.14.47-.38 1-.73.32l-.54.68v-.2c-.35.2-.46.82-.68 1.56-.1-.06 0-.36 0-.49-.58.1-.43.08-1.57 2.15l.28-1c-.18.36-.3.17-.41 0-.11-.17-.06 0 0-.09a2.6 2.6 0 0 0 .07-.4c0-.21 0-.3-.17-.21a3 3 0 0 1 .23-.35c-.29.15.08-1 .29-1.55.21-.55.24-.74-.67-.22a1.61 1.61 0 0 1-.44-.4c-.08.52-.28.64-.5.65-.22.01-.45-.11-.6.26a1.46 1.46 0 0 1 .26-.91c.17-.24.36-.33.4-.08l-.1.13a.81.81 0 0 0 .62-.78c.06-.33.07-.65.39-.63.041-1.456.161-2.908.36-4.35l-3.74.18v3.37l.73-.28v.85s-.57.29-.54-.31c-.41.31.34 1 .49 1-.35 1.17-.84-.49-.87-.13v.49l.09-.11c.28.41.59.47.5 1.19-.19.44-.47.19-.52.37 0 0-.08 0 0 .27l-.28 1.52c.23-.23.46-.45.68-.65.21.66-.28 1.44.54.67a3.49 3.49 0 0 0-.79 1.42 21.005 21.005 0 0 0-.67 2.16c-.05.174-.09.351-.12.53v1.16c.011.3-.026.601-.11.89.21.07.28.28.29.53.009.136.009.273 0 .41-.004.08-.004.16 0 .24a.767.767 0 0 0 .12.3.602.602 0 0 1 .19-.48c.13-.11.23-.05.52.24-.53.43-.28.89.11 1 .39.11.7-.07.67.45 0-.31.44-.46.91-.67.47-.21 1-.58.86-1 .53-.1-.24.66.07.94.41-.323.849-.608 1.31-.85a24.23 24.23 0 0 1 2.4-1.27c.44-.22.89-.44 1.35-.7l.69-.4.33-.2.21-.15c-.06-.16-.46-.24-.26-.66l1.24.3c.26-.25-.21-1 .64-.81-.15-.09-.37-.22-.2-.38a49.78 49.78 0 0 0 4.76-1.89c1.67-.54 3.57-1.17 5.3-.75-.5-.23-.22-.33.1-.42-.23 0-.09-.42-.18-.65.49.106.972.25 1.44.43.07-.35.42-.39.74-.41.32-.02.61 0 .7-.3l-.4.09c.28-.37.13-.78-.16-1.23-.29-.45-.7-.88-.68-1.36-.37.44-.89.19-1.51 0a1.36 1.36 0 0 0-1.74.51c-.31-.12.14-.36-.05-.53-.2.48-.53.65-1.24.67l.05-.12a8.501 8.501 0 0 1-2.23.51c-.89.051-1.773.182-2.64.39l.33.39a1.772 1.772 0 0 1-.88 0c-.25.87 1.28-.46 1.09.46-.46-.34-1.27 0-2 .29s-1.46.64-1.9.25c-.65.33.45.39-.2.72l-.31-.17v.42a.83.83 0 0 1-1-.25c.12 0 .26-.22.36-.29-.72 0-1.45 1-1.69 1l.69-.19-.73.54c-.13.1-.27.19-.41.28-.305.175-.593.379-.86.61-.289.272-.556.566-.8.88l-.08.31c-.49.55-.62.57-.68.5-.06-.07-.09-.17-.58.23l.09-.12c-.41.53-.9.7-1 .38.25-.13.36-.47.53-.79.132-.299.33-.562.58-.77a.874.874 0 0 0-.47.24 4.31 4.31 0 0 1-.86.64l.54-.65c-.37.22-.59.41-.54-.08.13.08.33-.18.54-.41.156-.222.376-.389.63-.48.61-.83.41-.84.3-1-.11-.16-.18-.4.47-.74-1-.16-.76 1-.95.85-.21.21-.4.22-.51.08a.68.68 0 0 1-.05-.63c.05-.22.42-.45.78-.69.36-.24.7-.32.76-1.1 0 .14.06.16 0 .29.32-.49-.26-1 .21-1.63-.6-.38.07-.81-.72-.94.05.41.1.83.12 1.24-.15-.72-1-1.38-.61-2.51.215.177.383.404.49.66.24-.33-.15-.64.08-1 .8.08.19 1.5.74 2.29.36-.37-.53-1.47.32-1.07-1.08-.56.15-1.37-.73-2.27h.47a1.83 1.83 0 0 1-.33-.7l.65.45c-.56-.72.35-1.51 0-2.21.18 1.52-.53.4-.81 1.07a1.43 1.43 0 0 1-.18-1l-3.48.17c-.27.61-1.27.54-1.14 2-.06-.27.31-1 .52-.57a2.57 2.57 0 0 1-.55 1.08c.06 1.3.49-.19.77.37-.59.43.22.64.39 1.22h-.48a1.82 1.82 0 0 0-.06.58c-.004.135.013.27.05.4a.44.44 0 0 0 .32.28c.24.08.47.1.26 1.08a5.56 5.56 0 0 1-.65-.64l.15 1h-.55a4.49 4.49 0 0 1 .08 2.76c.35-.54.89-.55.88.32-.3.93-.46.11-.42 1.4-.31.08-.68.06-.21-1-.16.09-.3 0-.46 0a4.728 4.728 0 0 0-.2 1.57c0 .48.1.76.1 1 .011-.234.048-.465.11-.69.21.365.443.716.7 1.05-.17.56-.32.55-.47.5.06.33.29.27.33.76-.38.48-.78 1.18-1 .55.16.47.31.9.47 1.3-.146.635-.337 1.26-.57 1.87a2.19 2.19 0 0 0 .29 1.52 9.002 9.002 0 0 1 2-1.91c.168-.261.355-.508.56-.74 1-.7 1.89-.83 3.23-2.71.204.15.426.275.66.37.53-.56.26-.63.12-.82-.14-.19-.19-.48.55-1.3 1-1.21.46.4.89.29.27-.51.59-1.21 1-1.8a3 3 0 0 1 1.44-1.33 7.028 7.028 0 0 1-1.12 1.18Zm7.1-9.11c0 .22 0 .73-.32.69-.27-.51-.01-.5.32-.69Zm6.55-14.31c.08.2-.08.37-.36.53a.89.89 0 0 1 .36-.53Zm7.38-41.92c-.19.44-.11.29 0 0Zm.25-.88a.14.14 0 0 0-.2-.06c.12.07.12.27.07.5.13-.06.22-.17.13-.44Zm-29.58 62.3.14-.16c.1.39-.01.31-.14.16Z"/><path d="M25.163 79.373a.651.651 0 0 1-.28 0c.05.07.14.11.28 0ZM4.163 107.943c-.037.063-.067.13-.09.2l.09-.2ZM35.443 49.143a.86.86 0 0 1-.31.32c.11.04.23-.03.31-.32ZM32.263 29.953l.12.57a.73.73 0 0 1 .17-.52c-.11.02-.28.14-.29-.05ZM35.163 24.913c-.06-.08 0-.18-.08-.26h-.23c.06.39.24.64.31.26ZM33.873 29.433c.4 0 .26-.41.19-.81v.07c-.57-.12-.38.31-.19.74ZM34.053 28.523a1.148 1.148 0 0 1 0-.37c-.24-.01-.06.15 0 .37ZM32.722 33.543c.11-.18-.52-.14-.35-.24-.5-.23.57 1.29.35.24ZM35.203 29.103l-.5.15.41.23.09-.38ZM34.783 32.323l.16-.65c-.09 0-.13-.07-.17-.18-.02.4-.14.84.01.83ZM34.773 31.493a.84.84 0 0 0-.07-.52 2.2 2.2 0 0 0 .07.52ZM35.362 30.003l-.11.19-.05.46.16-.65ZM34.263 39.293l.08.72c.16.09.29-.09.24-.36-.05-.27-.14-.45-.32-.36ZM35.803 37.253c-.12.19-.23.19-.4.29l.62.07-.22-.36ZM35.782 39.353c.17.09.39 1.09.44.17-.16-.08-.23-.81-.44-.17ZM33.572 49.943l.02-.17-1-.16.98.33ZM33.733 59.883c.49-.77-.54-.38 0-1-.17-.26-.41.55-.55.29.07.53-.17.75.55.71ZM33.163 59.143a2.252 2.252 0 0 0-.08-.3.8.8 0 0 0 .08.3ZM25.942 98.813c.129.059.25.133.36.22a2.562 2.562 0 0 0-.22-.35l-.14.13ZM26.743 98.143v.65c.1-.18.2-.36.32-.54-.11-.03-.28 0-.32-.11ZM20.712 91.223l-.11-.13c-.18 0-.27.09-.43.3l.54-.17ZM15.773 97.173l.1-.1-.62-.18.52.28ZM9.603 104.633a14.08 14.08 0 0 0 1.07-1.09c-.74.91-1.23.2-1.07 1.09Z"/></g></svg>